<svg width="29" height="29" viewBox="0 0 29 29" fill="none" xmlns="http://www.w3.org/2000/svg">
<path fill-rule="evenodd" clip-rule="evenodd" d="M23.0291 12.703C23.0291 18.4059 18.4059 23.0291 12.703 23.0291C6.99999 23.0291 2.37682 18.4059 2.37682 12.703C2.37682 6.99999 6.99999 2.37682 12.703 2.37682C18.4059 2.37682 23.0291 6.99999 23.0291 12.703ZM24.4059 12.703C24.4059 19.1663 19.1663 24.4059 12.703 24.4059C6.2396 24.4059 1 19.1663 1 12.703C1 6.2396 6.2396 1 12.703 1C19.1663 1 24.4059 6.2396 24.4059 12.703ZM27.1864 28.1595C27.4553 28.4284 27.8912 28.4284 28.16 28.1595C28.4288 27.8907 28.4288 27.4548 28.16 27.186L22.9379 21.9638C22.669 21.695 22.2332 21.695 21.9643 21.9638C21.6955 22.2327 21.6955 22.6685 21.9643 22.9374L27.1864 28.1595Z" fill="white"/>
<path d="M12.703 23.5291C18.6821 23.5291 23.5291 18.6821 23.5291 12.703H22.5291C22.5291 18.1298 18.1298 22.5291 12.703 22.5291V23.5291ZM1.87682 12.703C1.87682 18.6821 6.72385 23.5291 12.703 23.5291V22.5291C7.27614 22.5291 2.87682 18.1298 2.87682 12.703H1.87682ZM12.703 1.87682C6.72385 1.87682 1.87682 6.72385 1.87682 12.703H2.87682C2.87682 7.27614 7.27614 2.87682 12.703 2.87682V1.87682ZM23.5291 12.703C23.5291 6.72385 18.6821 1.87682 12.703 1.87682V2.87682C18.1298 2.87682 22.5291 7.27614 22.5291 12.703H23.5291ZM12.703 24.9059C19.4425 24.9059 24.9059 19.4425 24.9059 12.703H23.9059C23.9059 18.8902 18.8902 23.9059 12.703 23.9059V24.9059ZM0.5 12.703C0.5 19.4425 5.96345 24.9059 12.703 24.9059V23.9059C6.51574 23.9059 1.5 18.8902 1.5 12.703H0.5ZM12.703 0.5C5.96345 0.5 0.5 5.96345 0.5 12.703H1.5C1.5 6.51574 6.51574 1.5 12.703 1.5V0.5ZM24.9059 12.703C24.9059 5.96345 19.4425 0.5 12.703 0.5V1.5C18.8902 1.5 23.9059 6.51574 23.9059 12.703H24.9059ZM27.8065 27.806C27.7329 27.8795 27.6136 27.8795 27.54 27.806L26.8329 28.5131C27.297 28.9772 28.0495 28.9772 28.5136 28.5131L27.8065 27.806ZM27.8065 27.5395C27.88 27.6131 27.88 27.7324 27.8065 27.806L28.5136 28.5131C28.9777 28.049 28.9777 27.2965 28.5136 26.8324L27.8065 27.5395ZM22.5843 22.3174L27.8065 27.5395L28.5136 26.8324L23.2914 21.6103L22.5843 22.3174ZM22.3179 22.3174C22.3915 22.2438 22.5107 22.2438 22.5843 22.3174L23.2914 21.6103C22.8273 21.1462 22.0749 21.1462 21.6108 21.6103L22.3179 22.3174ZM22.3179 22.5838C22.2443 22.5103 22.2443 22.391 22.3179 22.3174L21.6108 21.6103C21.1467 22.0744 21.1467 22.8268 21.6108 23.2909L22.3179 22.5838ZM27.54 27.806L22.3179 22.5838L21.6108 23.2909L26.8329 28.5131L27.54 27.806Z" fill="white"/>
</svg>
