<svg width="413" height="350" viewBox="0 0 413 350" fill="none" xmlns="http://www.w3.org/2000/svg">
<g filter="url(#filter0_d_458_3875)">
<path d="M10 32C10 20.9543 18.9543 12 30 12H383C394.046 12 403 20.9543 403 32V342H10V32Z" fill="white"/>
</g>
<path d="M46.6174 44.606V41.528H44.4574V39.638H46.6174V37.982H44.4574V36.092H46.6174V31.97H48.9934V44.606H46.6174ZM44.2774 33.716V35.57H35.1874V33.716H38.6614V31.916H41.0374V33.716H44.2774ZM38.1934 39.404C38.1934 40.34 38.8774 40.844 39.8494 40.844C40.8034 40.844 41.4874 40.34 41.4874 39.404C41.4874 38.504 40.8034 37.982 39.8494 37.982C38.8774 37.982 38.1934 38.504 38.1934 39.404ZM43.7194 39.404C43.7194 41.33 42.0994 42.68 39.8494 42.68C37.5814 42.68 35.9614 41.33 35.9614 39.404C35.9614 37.496 37.5814 36.164 39.8494 36.164C42.0994 36.164 43.7194 37.496 43.7194 39.404ZM40.4254 46.37H49.3534V48.26H38.0494V43.58H40.4254V46.37ZM63.788 31.952H66.038V48.53H63.788V40.25H62.438V47.792H60.224V42.986L58.892 44.768C57.416 43.976 56.444 42.644 55.868 40.988C55.328 42.896 54.356 44.444 52.808 45.38L51.386 43.58C53.852 42.14 54.644 39.206 54.644 36.02V35.57H51.926V33.644H59.432V35.57H56.948V36.02C56.948 38.918 57.776 41.672 60.224 42.95V32.222H62.438V38.306H63.788V31.952ZM79.1234 35.516V36.434C79.1234 39.134 80.4554 41.996 83.2274 43.148L81.9314 45.02C80.0054 44.192 78.6914 42.572 77.9534 40.574C77.2154 42.734 75.8834 44.552 73.9394 45.434L72.5894 43.544C75.3614 42.302 76.7114 39.26 76.7114 36.434V35.516H73.2554V33.554H82.5434V35.516H79.1234ZM84.0734 31.97H86.4494V48.548H84.0734V31.97ZM97.95 44.732H104.286V46.676H89.274V44.732H95.574V41.276H91.02V33.104H102.558V35.012H93.414V39.368H102.684V41.276H97.95V44.732ZM111.737 38.846L110.945 37.01C114.023 36.74 115.643 35.66 116.057 34.544H111.665V32.654H123.923V34.544H119.513C119.927 35.66 121.547 36.74 124.643 37.01L123.815 38.846C120.701 38.576 118.667 37.406 117.785 35.84C116.903 37.406 114.869 38.576 111.737 38.846ZM121.097 45.56C121.097 44.714 119.963 44.354 117.749 44.354C115.535 44.354 114.401 44.714 114.401 45.56C114.401 46.388 115.535 46.748 117.749 46.748C119.963 46.748 121.097 46.388 121.097 45.56ZM125.273 41.384H118.973V42.608C121.817 42.842 123.509 43.868 123.509 45.56C123.509 47.468 121.331 48.548 117.749 48.548C114.167 48.548 112.007 47.468 112.007 45.56C112.007 43.85 113.717 42.824 116.597 42.59V41.384H110.297V39.494H125.273V41.384ZM137.008 38.9L135.874 40.754C134.002 40.196 132.724 39.062 131.986 37.604C131.23 39.188 129.88 40.448 127.936 41.06L126.784 39.188C129.556 38.324 130.744 36.218 130.744 34.184V32.582H133.156V34.184C133.156 36.182 134.326 38.126 137.008 38.9ZM131.932 43.958V46.496H138.304V43.958H131.932ZM129.592 48.35V42.104H140.626V48.35H129.592ZM138.232 31.97H140.626V41.33H138.232V31.97Z" fill="black"/>
<path d="M188.013 39.08L185.691 38.81C185.961 37.262 186.033 36.056 186.051 35.066H179.877V33.176H188.391V34.202C188.391 35.354 188.391 36.992 188.013 39.08ZM189.111 39.746L189.255 41.438C185.835 42.068 181.983 42.14 179.139 42.158L178.923 40.268C179.841 40.268 180.867 40.268 181.947 40.25V37.028H184.269V40.16C185.907 40.088 187.563 39.962 189.111 39.746ZM183.711 43.274V46.37H192.909V48.26H181.335V43.274H183.711ZM192.387 37.01H194.367V38.972H192.387V44.372H190.011V31.952H192.387V37.01ZM207.199 44.246V40.124H204.553V38.216H207.199V36.362H204.553V34.472H207.199V31.97H209.575V44.246H207.199ZM204.175 39.872L204.427 41.78C202.357 42.14 200.503 42.212 197.623 42.212H196.345V36.668H201.241V34.994H196.327V33.104H203.581V38.45H198.703V40.304C200.899 40.286 202.447 40.178 204.175 39.872ZM200.881 46.352H209.989V48.242H198.505V43.274H200.881V46.352ZM220.95 44.732H227.286V46.676H212.274V44.732H218.574V41.276H214.02V33.104H225.558V35.012H216.414V39.368H225.684V41.276H220.95V44.732ZM243.071 37.316L242.171 39.17C239.399 38.738 237.383 37.478 236.339 35.804C235.295 37.496 233.261 38.774 230.471 39.224L229.589 37.352C233.243 36.848 235.097 34.796 235.097 32.924V32.402H237.545V32.924C237.545 34.742 239.417 36.812 243.071 37.316ZM232.937 43.418V46.37H242.171V48.26H230.561V43.418H232.937ZM228.815 40.124H243.845V41.996H237.725V44.822H235.349V41.996H228.815V40.124Z" fill="black"/>
<line x1="10" y1="64.5315" x2="403" y2="64.5315" stroke="#ECF0F3"/>
<line x1="10" y1="234.5" x2="403" y2="234.5" stroke="#ECF0F3"/>
<path d="M152.5 44L158.129 37.25H146.871L152.5 44Z" fill="#949494"/>
<path d="M254.5 44L260.129 37.25H248.871L254.5 44Z" fill="#949494"/>
<path d="M44.54 94.8115H47.68V91.2115H44.48C44.6 91.8115 44.66 92.4715 44.66 93.1715C44.66 93.7515 44.62 94.3115 44.54 94.8115ZM39.9 97.3715C41.26 97.3715 42.18 95.9115 42.18 93.1715C42.18 90.4515 41.26 88.9915 39.9 88.9915C38.56 88.9915 37.64 90.4515 37.64 93.1715C37.64 95.9115 38.56 97.3715 39.9 97.3715ZM47.68 85.3115H50.32V103.791H47.68V96.9515H43.92C43.1 98.7515 41.68 99.7915 39.9 99.7715C37.16 99.7715 35.14 97.2315 35.14 93.1715C35.14 89.1315 37.16 86.6115 39.9 86.6115C41.56 86.6115 42.94 87.5115 43.76 89.0915H47.68V85.3115ZM59.1784 86.5515C62.0584 86.5515 64.2584 88.4515 64.2584 91.0915C64.2584 93.7515 62.0584 95.6315 59.1784 95.6315C56.2984 95.6315 54.1184 93.7515 54.1184 91.0915C54.1184 88.4515 56.2984 86.5515 59.1784 86.5515ZM59.1784 88.8115C57.7584 88.8115 56.6784 89.6515 56.6784 91.0915C56.6784 92.5315 57.7584 93.3715 59.1784 93.3715C60.5984 93.3715 61.6784 92.5315 61.6784 91.0915C61.6784 89.6515 60.5984 88.8115 59.1784 88.8115ZM65.9784 85.3115H68.6184V103.791H65.9784V85.3115ZM53.6784 100.051L53.3384 97.9115C56.5784 97.9115 61.0984 97.8915 64.9784 97.3115L65.1384 99.2115C61.1784 100.011 56.8584 100.051 53.6784 100.051ZM81.2969 99.5115H88.3369V101.671H71.6569V99.5115H78.6569V95.6715H73.5969V86.5915H86.4169V88.7115H76.2569V93.5515H86.5569V95.6715H81.2969V99.5115ZM105.876 87.2715L105.856 89.3315H95.0163V87.2715H99.0963V85.3115H101.756V87.2715H105.876ZM98.4363 93.5315C98.4363 94.5515 99.2563 95.0915 100.436 95.0915C101.596 95.0915 102.436 94.5515 102.436 93.5315C102.436 92.5315 101.596 91.9915 100.436 91.9915C99.2563 91.9915 98.4363 92.5315 98.4363 93.5315ZM104.956 93.5315C104.956 95.6515 103.076 97.0915 100.436 97.0915C97.7963 97.0915 95.9163 95.6515 95.9163 93.5315C95.9163 91.4515 97.7963 89.9915 100.436 89.9915C103.076 89.9915 104.956 91.4515 104.956 93.5315ZM100.276 98.0915V101.331H110.176V103.431H97.6363V98.0915H100.276ZM109.516 90.9515H111.956V93.1315H109.516V99.1115H106.876V85.3315H109.516V90.9515ZM114.135 86.5315H122.855C122.855 91.4915 119.775 94.9115 114.335 96.4315L113.275 94.3115C117.295 93.2315 119.555 91.1515 119.955 88.6315H114.135V86.5315ZM121.935 101.711C124.175 101.711 125.515 101.131 125.515 99.9915C125.515 98.8515 124.175 98.2715 121.935 98.2715C119.695 98.2715 118.355 98.8515 118.355 99.9915C118.355 101.131 119.695 101.711 121.935 101.711ZM121.935 96.2115C125.655 96.2115 128.115 97.6715 128.115 99.9915C128.115 102.311 125.655 103.771 121.935 103.771C118.215 103.771 115.755 102.311 115.755 99.9915C115.755 97.6715 118.215 96.2115 121.935 96.2115ZM127.915 89.6315H130.355V91.8115H127.915V95.9715H125.275V85.3115H127.915V89.6315ZM145.953 92.5915L143.353 92.3315C143.773 90.6915 143.833 89.4515 143.833 88.2315H133.713V86.1515H146.473V87.6715C146.473 89.1315 146.473 90.6915 145.953 92.5915ZM140.033 101.771C142.533 101.771 143.953 101.271 143.953 100.291C143.953 99.2915 142.533 98.7915 140.033 98.7915C137.553 98.7915 136.133 99.2915 136.133 100.291C136.133 101.271 137.553 101.771 140.033 101.771ZM140.033 96.8115C144.013 96.8115 146.573 98.1315 146.573 100.291C146.573 102.431 144.013 103.751 140.033 103.751C136.073 103.751 133.513 102.431 133.513 100.291C133.513 98.1315 136.073 96.8115 140.033 96.8115ZM140.633 93.5715H148.433V95.6515H131.853V93.5715H137.993V90.3515H140.633V93.5715ZM159.612 96.0315H163.072V85.3315H165.712V99.2915H163.072V97.8315H159.612V96.0315ZM156.072 87.8715C154.832 87.8715 153.972 88.3515 153.972 89.2515C153.972 90.1515 154.832 90.6115 156.072 90.6115C157.292 90.6115 158.152 90.1515 158.152 89.2515C158.152 88.3515 157.292 87.8715 156.072 87.8715ZM156.072 92.5315C153.372 92.5315 151.492 91.2115 151.492 89.2515C151.492 87.2915 153.372 85.9515 156.072 85.9515C158.752 85.9515 160.652 87.2915 160.652 89.2515C160.652 91.2115 158.752 92.5315 156.072 92.5315ZM155.092 101.331H166.112V103.431H152.452V97.9515H155.012V95.4915C153.392 95.5715 151.852 95.5915 150.472 95.5915L150.132 93.4915C153.492 93.4715 157.972 93.4315 161.852 92.9315L162.032 94.8115C160.592 95.0515 159.112 95.2115 157.632 95.3315V98.8115H155.092V101.331Z" fill="#0067C3"/>
<path d="M182.678 88.6215V91.5195C182.678 94.4715 184.604 97.4415 186.998 98.5215L186.116 99.7095C184.28 98.8095 182.732 96.9015 181.958 94.5975C181.22 97.0275 179.672 99.0435 177.782 100.015L176.882 98.8095C179.258 97.6755 181.22 94.5795 181.22 91.5195V88.6215H182.678ZM188.69 87.2175H190.166V103.399H188.69V87.2175ZM206.761 87.2355V98.8275H205.285V87.2355H206.761ZM200.461 94.9395V89.8095H195.799V94.9395H200.461ZM201.901 88.6215V96.1275H194.359V88.6215H201.901ZM197.851 101.635H207.247V102.823H196.375V97.7295H197.851V101.635ZM221.357 89.4135V89.2335H211.817V88.0455H222.815V89.4135C222.815 90.7095 222.815 92.0235 222.365 93.6795L220.925 93.5175C221.357 91.8615 221.357 90.6735 221.357 89.4135ZM217.307 102.193C219.845 102.193 221.465 101.509 221.465 100.393C221.465 99.2415 219.845 98.5575 217.307 98.5575C214.787 98.5575 213.167 99.2415 213.167 100.393C213.167 101.509 214.787 102.193 217.307 102.193ZM217.307 97.4235C220.745 97.4235 222.941 98.5215 222.941 100.393C222.941 102.229 220.745 103.345 217.307 103.345C213.869 103.345 211.691 102.229 211.691 100.393C211.691 98.5215 213.869 97.4235 217.307 97.4235ZM217.541 94.7415H224.633V95.9295H210.107V94.7415H216.065V91.6455H217.541V94.7415ZM235.09 96.7575H238.366V87.2175H239.842V99.5115H238.366V97.8555H235.09V96.7575ZM231.796 88.9635C230.266 88.9635 229.222 89.6475 229.222 90.6735C229.222 91.7175 230.266 92.4015 231.796 92.4015C233.326 92.4015 234.37 91.7175 234.37 90.6735C234.37 89.6475 233.326 88.9635 231.796 88.9635ZM231.796 93.4995C229.438 93.4995 227.818 92.4015 227.818 90.6735C227.818 88.9815 229.438 87.8655 231.796 87.8655C234.154 87.8655 235.774 88.9815 235.774 90.6735C235.774 92.4015 234.154 93.4995 231.796 93.4995ZM231.22 98.9355V95.8215C229.618 95.8935 228.07 95.9115 226.738 95.9115L226.54 94.6875C229.528 94.6875 233.524 94.6515 236.944 94.2195L237.07 95.2815C235.648 95.4975 234.154 95.6595 232.696 95.7495V98.9355H231.22ZM230.32 101.797H240.256V103.003H228.844V98.3055H230.32V101.797Z" fill="#8F8F8F"/>
<path d="M35.3551 136.031V134.881L39.6761 130.151C40.1832 129.597 40.6009 129.115 40.929 128.706C41.2571 128.293 41.5 127.905 41.6577 127.543C41.8196 127.176 41.9006 126.793 41.9006 126.392C41.9006 125.932 41.7898 125.534 41.5682 125.197C41.3509 124.86 41.0526 124.6 40.6733 124.417C40.294 124.234 39.8679 124.142 39.3949 124.142C38.892 124.142 38.4531 124.247 38.0781 124.455C37.7074 124.66 37.4197 124.948 37.2152 125.318C37.0149 125.689 36.9148 126.124 36.9148 126.622H35.4062C35.4062 125.855 35.5831 125.182 35.9368 124.603C36.2905 124.023 36.772 123.571 37.3814 123.247C37.995 122.924 38.6832 122.762 39.446 122.762C40.2131 122.762 40.8928 122.924 41.4851 123.247C42.0774 123.571 42.5419 124.008 42.8786 124.558C43.2152 125.107 43.3835 125.719 43.3835 126.392C43.3835 126.874 43.2962 127.345 43.1214 127.805C42.951 128.261 42.6527 128.77 42.2266 129.333C41.8047 129.891 41.2188 130.573 40.4688 131.378L37.5284 134.523V134.625H43.6136V136.031H35.3551ZM47.3786 136.134C47.0632 136.134 46.7926 136.021 46.5668 135.795C46.3409 135.569 46.228 135.299 46.228 134.983C46.228 134.668 46.3409 134.397 46.5668 134.171C46.7926 133.946 47.0632 133.833 47.3786 133.833C47.6939 133.833 47.9645 133.946 48.1903 134.171C48.4162 134.397 48.5291 134.668 48.5291 134.983C48.5291 135.192 48.4759 135.384 48.3693 135.558C48.267 135.733 48.1286 135.874 47.9538 135.98C47.7834 136.083 47.5916 136.134 47.3786 136.134ZM55.0378 136.21C54.2878 136.21 53.6124 136.061 53.0115 135.763C52.4107 135.465 51.9292 135.056 51.5669 134.536C51.2047 134.016 51.0066 133.424 50.9725 132.759H52.5066C52.5662 133.351 52.8347 133.841 53.312 134.229C53.7935 134.612 54.3688 134.804 55.0378 134.804C55.5748 134.804 56.052 134.679 56.4696 134.427C56.8915 134.176 57.2218 133.83 57.4604 133.392C57.7033 132.948 57.8248 132.448 57.8248 131.889C57.8248 131.318 57.699 130.809 57.4476 130.362C57.2005 129.91 56.8596 129.554 56.4249 129.294C55.9902 129.034 55.4938 128.902 54.9355 128.898C54.535 128.894 54.1238 128.955 53.7019 129.083C53.28 129.207 52.9327 129.367 52.66 129.563L51.177 129.384L51.9696 122.941H58.7708V124.347H53.2992L52.839 128.208H52.9157C53.1841 127.995 53.5208 127.818 53.9256 127.677C54.3304 127.536 54.7523 127.466 55.1912 127.466C55.9924 127.466 56.7061 127.658 57.3326 128.041C57.9632 128.421 58.4576 128.941 58.8155 129.601C59.1777 130.262 59.3588 131.016 59.3588 131.864C59.3588 132.699 59.1713 133.445 58.7963 134.101C58.4256 134.753 57.9142 135.269 57.2623 135.648C56.6103 136.023 55.8688 136.21 55.0378 136.21ZM63.3299 132.452L63.3043 130.585H63.6112L67.9066 126.213H69.7731L65.1964 130.841H65.0685L63.3299 132.452ZM61.9237 136.031V122.941H63.4322V136.031H61.9237ZM68.1623 136.031L64.3271 131.174L65.4009 130.125L70.0799 136.031H68.1623ZM71.7147 136.031V126.213H73.1721V127.747H73.2999C73.5044 127.223 73.8347 126.816 74.2907 126.527C74.7466 126.232 75.2942 126.085 75.9334 126.085C76.5811 126.085 77.1202 126.232 77.5506 126.527C77.9853 126.816 78.324 127.223 78.5669 127.747H78.6692C78.9206 127.24 79.2978 126.838 79.8006 126.539C80.3034 126.237 80.9064 126.085 81.6096 126.085C82.4874 126.085 83.2054 126.36 83.7637 126.91C84.3219 127.455 84.601 128.306 84.601 129.46V136.031H83.0925V129.46C83.0925 128.736 82.8944 128.218 82.498 127.907C82.1017 127.596 81.6351 127.441 81.0982 127.441C80.4078 127.441 79.873 127.649 79.4938 128.067C79.1145 128.48 78.9249 129.005 78.9249 129.639V136.031H77.3908V129.307C77.3908 128.749 77.2097 128.299 76.8475 127.958C76.4853 127.613 76.0186 127.441 75.4476 127.441C75.0556 127.441 74.6891 127.545 74.3482 127.754C74.0115 127.963 73.7388 128.252 73.53 128.623C73.3255 128.99 73.2232 129.414 73.2232 129.895V136.031H71.7147Z" fill="black"/>
<path d="M114.606 122.603V125.501C114.606 128.435 116.442 131.369 118.782 132.485L117.918 133.655C116.082 132.737 114.606 130.811 113.868 128.543C113.166 130.937 111.672 132.971 109.854 133.943L108.954 132.773C111.294 131.603 113.13 128.489 113.13 125.501V122.603H114.606ZM120.78 121.217H122.256V137.381H120.78V127.895H117.036V126.689H120.78V121.217ZM132.803 122.513C130.157 122.513 128.645 123.125 128.645 124.205C128.645 125.285 130.157 125.897 132.803 125.897C135.449 125.897 136.961 125.285 136.961 124.205C136.961 123.125 135.449 122.513 132.803 122.513ZM132.803 126.995C129.257 126.995 127.133 126.023 127.133 124.205C127.133 122.387 129.257 121.397 132.803 121.397C136.367 121.397 138.473 122.387 138.473 124.205C138.473 126.023 136.367 126.995 132.803 126.995ZM140.093 129.245H133.541V130.757H138.239V134.393H128.753V136.031H138.725V137.183H127.313V133.313H136.781V131.873H127.277V130.757H132.065V129.245H125.513V128.057H140.093V129.245ZM148.79 126.005C148.79 127.517 149.978 128.597 151.544 128.597C153.128 128.597 154.28 127.517 154.28 126.005C154.28 124.511 153.128 123.431 151.544 123.431C149.978 123.431 148.79 124.511 148.79 126.005ZM158.942 124.745H155.486C155.612 125.123 155.684 125.537 155.684 126.005C155.684 126.455 155.612 126.869 155.468 127.265H158.942V124.745ZM158.942 128.471H154.802C154.064 129.335 152.912 129.857 151.544 129.857C149.15 129.857 147.386 128.273 147.386 126.005C147.386 123.755 149.15 122.189 151.544 122.189C152.912 122.189 154.064 122.711 154.802 123.539H158.942V121.217H160.436V130.775H158.942V128.471ZM155.09 136.175C157.556 136.175 159.032 135.455 159.032 134.249C159.032 133.025 157.556 132.305 155.09 132.305C152.66 132.305 151.184 133.025 151.184 134.249C151.184 135.455 152.66 136.175 155.09 136.175ZM155.09 131.153C158.42 131.153 160.49 132.287 160.49 134.249C160.49 136.211 158.42 137.345 155.09 137.345C151.778 137.345 149.726 136.211 149.726 134.249C149.726 132.287 151.778 131.153 155.09 131.153ZM176.598 126.167V127.355H165.528V121.865H176.49V123.053H167.004V126.167H176.598ZM170.982 136.193C173.502 136.193 175.014 135.563 175.014 134.429C175.014 133.295 173.52 132.665 170.982 132.665C168.444 132.665 166.95 133.295 166.95 134.429C166.95 135.563 168.444 136.193 170.982 136.193ZM170.982 131.513C174.42 131.513 176.508 132.557 176.508 134.429C176.508 136.301 174.42 137.345 170.982 137.345C167.544 137.345 165.456 136.301 165.456 134.429C165.456 132.557 167.544 131.513 170.982 131.513ZM163.692 128.903H178.308V130.127H163.692V128.903ZM185.525 123.953V129.245H189.539V123.953H185.525ZM188.279 134.141H194.885V135.347H180.251V134.141H186.785V130.433H181.583V129.245H184.049V123.953H181.547V122.765H193.517V123.953H191.015V129.245H193.481V130.433H188.279V134.141ZM211.425 129.209V130.415H204.837V137.381H203.343V130.415H196.827V129.209H207.537C208.041 126.887 208.041 125.177 208.041 123.665V123.449H198.645V122.261H209.481V123.665C209.481 125.177 209.481 126.887 209.031 129.209H211.425ZM226.585 129.929H230.257V126.041H226.531C226.675 126.671 226.765 127.355 226.765 128.093C226.765 128.759 226.693 129.371 226.585 129.929ZM222.751 132.413C224.281 132.413 225.379 130.721 225.379 128.093C225.379 125.483 224.281 123.791 222.751 123.791C221.203 123.791 220.123 125.483 220.123 128.093C220.123 130.721 221.203 132.413 222.751 132.413ZM230.257 121.217H231.733V137.399H230.257V131.135H226.225C225.559 132.773 224.299 133.727 222.751 133.727C220.393 133.727 218.719 131.531 218.719 128.093C218.719 124.655 220.393 122.459 222.751 122.459C224.245 122.459 225.433 123.323 226.117 124.835H230.257V121.217ZM240.227 122.405C242.747 122.405 244.547 123.935 244.547 126.203C244.547 128.453 242.747 130.001 240.227 130.001C237.725 130.001 235.907 128.453 235.907 126.203C235.907 123.935 237.725 122.405 240.227 122.405ZM240.227 123.665C238.571 123.665 237.347 124.691 237.347 126.203C237.347 127.697 238.571 128.741 240.227 128.741C241.901 128.741 243.107 127.697 243.107 126.203C243.107 124.691 241.901 123.665 240.227 123.665ZM246.671 121.217H248.147V137.399H246.671V121.217ZM235.277 133.853L235.097 132.611C238.031 132.611 242.081 132.593 245.609 132.053L245.735 133.151C242.099 133.817 238.193 133.853 235.277 133.853ZM259.594 134.105H266.2V135.329H251.53V134.105H258.1V129.965H253.402V122.513H264.346V123.719H254.878V128.777H264.508V129.965H259.594V134.105ZM275.414 136.211C277.934 136.211 279.428 135.581 279.428 134.447C279.428 133.313 277.934 132.683 275.414 132.683C272.858 132.683 271.364 133.313 271.364 134.447C271.364 135.581 272.858 136.211 275.414 136.211ZM275.414 131.531C278.834 131.531 280.922 132.575 280.922 134.447C280.922 136.319 278.834 137.363 275.414 137.363C271.958 137.363 269.87 136.319 269.87 134.447C269.87 132.575 271.958 131.531 275.414 131.531ZM276.152 129.191H282.722V130.379H268.106V129.191H274.676V127.319H269.942V121.955H280.904V123.143H271.418V126.131H281.012V127.319H276.152V129.191Z" fill="black"/>
<line x1="100.5" y1="120.031" x2="100.5" y2="138.031" stroke="#E1E1E1"/>
<rect x="34.5" y="177.531" width="75" height="39" rx="19.5" fill="white" stroke="#E9EAEC"/>
<path d="M77.9634 193.681H81.2034V189.235H82.6974V201.061H81.2034V194.887H77.9634V193.681ZM78.9174 197.479L78.1794 198.631C76.3794 197.983 74.9934 196.633 74.2914 194.977C73.5894 196.813 72.1134 198.307 70.2234 198.991L69.4494 197.839C71.8434 196.975 73.5174 194.833 73.5174 192.547V191.737H69.9174V190.531H78.5394V191.737H74.9934V192.529C74.9934 194.635 76.5774 196.651 78.9174 197.479ZM73.8594 203.797H83.1474V205.003H72.3654V200.017H73.8594V203.797ZM95.692 191.179V192.349H86.044V191.179H90.148V189.235H91.624V191.179H95.692ZM88.474 196.291C88.474 197.407 89.446 198.127 90.886 198.127C92.326 198.127 93.298 197.407 93.298 196.291C93.298 195.175 92.326 194.437 90.886 194.437C89.446 194.437 88.474 195.175 88.474 196.291ZM91.624 199.243V200.953C93.082 200.881 94.576 200.773 95.962 200.557L96.052 201.655C92.596 202.267 88.798 202.303 85.972 202.303L85.774 201.061C87.07 201.061 88.582 201.061 90.148 201.007V199.243C88.294 199.009 87.07 197.893 87.07 196.291C87.07 194.473 88.636 193.303 90.886 193.303C93.136 193.303 94.702 194.473 94.702 196.291C94.702 197.893 93.478 199.009 91.624 199.243ZM100.912 196.075V197.317H98.392V205.363H96.916V189.217H98.392V196.075H100.912Z" fill="black"/>
<circle cx="52" cy="197.031" r="13" fill="#F1FCF6"/>
<path d="M56.2954 202.003C55.0776 201.907 54.5331 201.774 53.292 201.298C51.9485 200.782 50.9811 200.064 49.8843 199.12C48.8242 198.207 47.9724 197.077 47.3979 195.823C46.8783 194.689 46.5998 193.485 46.5764 192.293C46.5743 192.184 46.6198 192.068 46.7136 191.975L48.5962 190.092C48.7915 189.897 49.108 189.897 49.3033 190.092L51.2471 192.036C51.4423 192.231 51.4423 192.548 51.2471 192.743L50.7863 193.204C50.2005 193.789 50.2005 194.739 50.7863 195.325L52.8566 197.395C53.4424 197.981 54.3921 197.981 54.9779 197.395L55.4386 196.935C55.6339 196.739 55.9505 196.739 56.1458 196.935L58.5196 199.308C58.7149 199.504 58.7149 199.82 58.5196 200.016L56.6751 201.86C56.5722 201.963 56.4328 202.014 56.2954 202.003Z" fill="white" stroke="#0EC159"/>
<rect x="116.5" y="177.531" width="94" height="39" rx="19.5" fill="white" stroke="#E9EAEC"/>
<path d="M166.202 189.217V197.461H164.726V189.217H166.202ZM154.034 190.009H161.378C161.378 194.113 158.516 196.705 153.764 197.785L153.224 196.597C157.256 195.715 159.542 193.789 159.776 191.215H154.034V190.009ZM157.256 204.031H166.742V205.201H155.78V201.061H164.726V199.405H155.744V198.235H166.202V202.159H157.256V204.031ZM178.963 196.957L178.261 198.091C176.425 197.551 175.021 196.363 174.301 194.851C173.599 196.525 172.123 197.803 170.233 198.415L169.513 197.245C171.907 196.525 173.545 194.689 173.545 192.565V192.295H169.963V191.107H173.545V189.145H175.021V191.107H178.585V192.295H175.021V192.565C175.021 194.509 176.587 196.273 178.963 196.957ZM182.311 200.647H177.793C178.063 202.303 180.349 203.761 182.941 204.175L182.383 205.309C180.043 204.913 177.937 203.743 177.019 202.141C176.119 203.761 174.031 204.895 171.655 205.291L171.133 204.157C173.725 203.761 176.011 202.339 176.245 200.647H171.745V199.459H182.311V200.647ZM182.041 193.213H184.435V194.437H182.041V198.595H180.565V189.235H182.041V193.213ZM187.025 190.963H194.585C194.585 195.625 192.443 199.729 187.079 202.357L186.287 201.151C190.625 199.081 192.785 195.985 193.091 192.151H187.025V190.963ZM197.843 189.217H199.319V205.363H197.843V189.217Z" fill="black"/>
<circle cx="134" cy="197.031" r="13" fill="#F1FCF6"/>
<path d="M129 203.031V196.665H135V191.031" stroke="#0DC257"/>
<path d="M132 194.031L135 191.031L138 194.031" stroke="#0DC257"/>
<path d="M288 126.031L294.5 132.531L301 126.031" stroke="black"/>
<path d="M45.88 263.78L44.68 265.82C42.62 265.28 41.2 264.14 40.36 262.7C39.56 264.36 38.1 265.68 35.98 266.3L34.72 264.24C37.66 263.4 38.94 261.36 38.98 259.28H35.38V257.22H38.98V255.24H41.62V257.22H45.26V259.28H41.62C41.66 261.14 42.94 263.02 45.88 263.78ZM43.34 271.7C45.7 271.7 46.94 271.24 46.94 270.24C46.94 269.24 45.7 268.78 43.34 268.78C40.96 268.78 39.72 269.24 39.72 270.24C39.72 271.24 40.96 271.7 43.34 271.7ZM43.34 266.74C47.18 266.74 49.56 268.04 49.56 270.24C49.56 272.44 47.18 273.72 43.34 273.72C39.48 273.72 37.1 272.44 37.1 270.24C37.1 268.04 39.48 266.74 43.34 266.74ZM49.36 259.62H51.8V261.78H49.36V266.4H46.72V255.3H49.36V259.62ZM63.0784 260.68H66.0184V255.3H68.6584V268.94H66.0184V262.8H63.0784V260.68ZM64.3184 264.72L63.0584 266.78C60.9984 266.18 59.5784 264.94 58.7384 263.36C57.9384 265.08 56.4984 266.42 54.4184 267.08L53.1384 265.02C56.0984 264.08 57.3784 261.84 57.3784 259.62V259.54H53.7784V257.48H57.3784V255.44H60.0184V257.48H63.6584V259.54H60.0184V259.62C60.0184 261.72 61.3184 263.82 64.3184 264.72ZM59.1584 271.3H69.0784V273.4H56.5184V267.8H59.1584V271.3ZM83.5969 260.86V258.14H76.2969V260.86H83.5969ZM86.1969 256.08V262.94H73.6969V256.08H86.1969ZM76.2169 268.06V271.3H86.4769V273.4H73.5769V268.06H76.2169ZM71.6369 264.4H88.3169V266.48H81.5369V269.62H78.8969V266.48H71.6369V264.4ZM101.035 257.32V259.4H90.1953V257.32H94.3153V255.38H96.9553V257.32H101.035ZM93.6353 263.58C93.6353 264.56 94.4353 265.08 95.6353 265.08C96.8353 265.08 97.6353 264.56 97.6353 263.58C97.6353 262.64 96.8353 262.12 95.6353 262.12C94.4353 262.12 93.6353 262.64 93.6353 263.58ZM96.9553 266.92V268.38C98.3753 268.3 99.7953 268.2 101.115 268L101.315 269.9C97.4353 270.66 93.2953 270.66 90.1753 270.66L89.8553 268.52C91.1753 268.52 92.6953 268.52 94.3153 268.48V266.92C92.3953 266.52 91.1353 265.28 91.1353 263.58C91.1353 261.52 92.9953 260.12 95.6353 260.12C98.2753 260.12 100.135 261.52 100.135 263.58C100.135 265.28 98.8753 266.52 96.9553 266.92ZM106.995 262.8V264.98H104.695V273.72H102.055V255.3H104.695V262.8H106.995ZM122.594 262.56L119.994 262.3C120.414 260.66 120.474 259.42 120.474 258.2H110.354V256.12H123.114V257.64C123.114 259.1 123.114 260.66 122.594 262.56ZM116.674 271.74C119.174 271.74 120.594 271.24 120.594 270.26C120.594 269.26 119.174 268.76 116.674 268.76C114.194 268.76 112.774 269.26 112.774 270.26C112.774 271.24 114.194 271.74 116.674 271.74ZM116.674 266.78C120.654 266.78 123.214 268.1 123.214 270.26C123.214 272.4 120.654 273.72 116.674 273.72C112.714 273.72 110.154 272.4 110.154 270.26C110.154 268.1 112.714 266.78 116.674 266.78ZM117.274 263.54H125.074V265.62H108.494V263.54H114.634V260.32H117.274V263.54ZM136.252 266H139.712V255.3H142.352V269.26H139.712V267.8H136.252V266ZM132.712 257.84C131.472 257.84 130.612 258.32 130.612 259.22C130.612 260.12 131.472 260.58 132.712 260.58C133.932 260.58 134.792 260.12 134.792 259.22C134.792 258.32 133.932 257.84 132.712 257.84ZM132.712 262.5C130.012 262.5 128.132 261.18 128.132 259.22C128.132 257.26 130.012 255.92 132.712 255.92C135.392 255.92 137.292 257.26 137.292 259.22C137.292 261.18 135.392 262.5 132.712 262.5ZM131.732 271.3H142.752V273.4H129.092V267.92H131.652V265.46C130.032 265.54 128.492 265.56 127.112 265.56L126.772 263.46C130.132 263.44 134.612 263.4 138.492 262.9L138.672 264.78C137.232 265.02 135.752 265.18 134.272 265.3V268.78H131.732V271.3Z" fill="#0067C3"/>
<path d="M161.678 258.59V261.488C161.678 264.44 163.604 267.41 165.998 268.49L165.116 269.678C163.28 268.778 161.732 266.87 160.958 264.566C160.22 266.996 158.672 269.012 156.782 269.984L155.882 268.778C158.258 267.644 160.22 264.548 160.22 261.488V258.59H161.678ZM167.69 257.186H169.166V273.368H167.69V257.186ZM185.761 257.204V268.796H184.285V257.204H185.761ZM179.461 264.908V259.778H174.799V264.908H179.461ZM180.901 258.59V266.096H173.359V258.59H180.901ZM176.851 271.604H186.247V272.792H175.375V267.698H176.851V271.604ZM200.357 259.382V259.202H190.817V258.014H201.815V259.382C201.815 260.678 201.815 261.992 201.365 263.648L199.925 263.486C200.357 261.83 200.357 260.642 200.357 259.382ZM196.307 272.162C198.845 272.162 200.465 271.478 200.465 270.362C200.465 269.21 198.845 268.526 196.307 268.526C193.787 268.526 192.167 269.21 192.167 270.362C192.167 271.478 193.787 272.162 196.307 272.162ZM196.307 267.392C199.745 267.392 201.941 268.49 201.941 270.362C201.941 272.198 199.745 273.314 196.307 273.314C192.869 273.314 190.691 272.198 190.691 270.362C190.691 268.49 192.869 267.392 196.307 267.392ZM196.541 264.71H203.633V265.898H189.107V264.71H195.065V261.614H196.541V264.71ZM214.09 266.726H217.366V257.186H218.842V269.48H217.366V267.824H214.09V266.726ZM210.796 258.932C209.266 258.932 208.222 259.616 208.222 260.642C208.222 261.686 209.266 262.37 210.796 262.37C212.326 262.37 213.37 261.686 213.37 260.642C213.37 259.616 212.326 258.932 210.796 258.932ZM210.796 263.468C208.438 263.468 206.818 262.37 206.818 260.642C206.818 258.95 208.438 257.834 210.796 257.834C213.154 257.834 214.774 258.95 214.774 260.642C214.774 262.37 213.154 263.468 210.796 263.468ZM210.22 268.904V265.79C208.618 265.862 207.07 265.88 205.738 265.88L205.54 264.656C208.528 264.656 212.524 264.62 215.944 264.188L216.07 265.25C214.648 265.466 213.154 265.628 211.696 265.718V268.904H210.22ZM209.32 271.766H219.256V272.972H207.844V268.274H209.32V271.766Z" fill="#8F8F8F"/>
<path d="M39.9574 292.909V306H38.3722V294.571H38.2955L35.0994 296.693V295.082L38.3722 292.909H39.9574ZM44.0739 306.102C43.7585 306.102 43.4879 305.989 43.2621 305.763C43.0362 305.538 42.9233 305.267 42.9233 304.952C42.9233 304.636 43.0362 304.366 43.2621 304.14C43.4879 303.914 43.7585 303.801 44.0739 303.801C44.3892 303.801 44.6598 303.914 44.8857 304.14C45.1115 304.366 45.2244 304.636 45.2244 304.952C45.2244 305.161 45.1712 305.352 45.0646 305.527C44.9624 305.702 44.8239 305.842 44.6491 305.949C44.4787 306.051 44.2869 306.102 44.0739 306.102ZM51.7955 306.179C51.2585 306.17 50.7216 306.068 50.1847 305.872C49.6477 305.676 49.1577 305.346 48.7145 304.881C48.2713 304.413 47.9155 303.78 47.647 302.983C47.3786 302.182 47.2443 301.176 47.2443 299.966C47.2443 298.807 47.353 297.78 47.5703 296.885C47.7876 295.986 48.103 295.229 48.5163 294.616C48.9297 293.998 49.4283 293.529 50.0121 293.21C50.6001 292.89 51.2628 292.73 52 292.73C52.733 292.73 53.3849 292.877 53.956 293.171C54.5313 293.461 55 293.866 55.3622 294.386C55.7244 294.906 55.9588 295.504 56.0653 296.182H54.5057C54.3608 295.594 54.0795 295.106 53.6619 294.718C53.2443 294.33 52.6903 294.136 52 294.136C50.9858 294.136 50.1868 294.577 49.603 295.46C49.0234 296.342 48.7315 297.58 48.7273 299.173H48.8295C49.0682 298.811 49.3516 298.502 49.6797 298.246C50.0121 297.987 50.3786 297.786 50.7791 297.646C51.1797 297.505 51.6037 297.435 52.0511 297.435C52.8011 297.435 53.4872 297.622 54.1094 297.997C54.7315 298.368 55.2301 298.881 55.6051 299.538C55.9801 300.19 56.1676 300.938 56.1676 301.781C56.1676 302.591 55.9865 303.332 55.6243 304.006C55.2621 304.675 54.7528 305.207 54.0966 305.604C53.4446 305.996 52.6776 306.188 51.7955 306.179ZM51.7955 304.773C52.3324 304.773 52.8139 304.638 53.2401 304.37C53.6705 304.102 54.0092 303.741 54.2564 303.29C54.5078 302.838 54.6335 302.335 54.6335 301.781C54.6335 301.24 54.5121 300.748 54.2692 300.305C54.0305 299.857 53.7003 299.501 53.2784 299.237C52.8608 298.973 52.3835 298.841 51.8466 298.841C51.4418 298.841 51.0646 298.922 50.7152 299.084C50.3658 299.241 50.0589 299.459 49.7947 299.736C49.5348 300.013 49.3303 300.33 49.1811 300.688C49.032 301.042 48.9574 301.415 48.9574 301.807C48.9574 302.327 49.0788 302.812 49.3217 303.264C49.5689 303.716 49.9055 304.08 50.3317 304.357C50.7621 304.634 51.25 304.773 51.7955 304.773ZM60.1131 302.42L60.0875 300.554H60.3944L64.6898 296.182H66.5563L61.9796 300.81H61.8517L60.1131 302.42ZM58.7069 306V292.909H60.2154V306H58.7069ZM64.9455 306L61.1103 301.142L62.1841 300.094L66.8631 306H64.9455ZM68.4979 306V296.182H69.9553V297.716H70.0831C70.2876 297.192 70.6179 296.785 71.0739 296.495C71.5298 296.201 72.0774 296.054 72.7166 296.054C73.3643 296.054 73.9034 296.201 74.3338 296.495C74.7685 296.785 75.1072 297.192 75.3501 297.716H75.4524C75.7038 297.209 76.081 296.806 76.5838 296.508C77.0866 296.205 77.6896 296.054 78.3928 296.054C79.2706 296.054 79.9886 296.329 80.5469 296.879C81.1051 297.424 81.3842 298.274 81.3842 299.429V306H79.8757V299.429C79.8757 298.705 79.6776 298.187 79.2812 297.876C78.8849 297.565 78.4183 297.409 77.8814 297.409C77.1911 297.409 76.6563 297.618 76.277 298.036C75.8977 298.449 75.7081 298.973 75.7081 299.608V306H74.174V299.276C74.174 298.717 73.9929 298.268 73.6307 297.927C73.2685 297.582 72.8018 297.409 72.2308 297.409C71.8388 297.409 71.4723 297.513 71.1314 297.722C70.7947 297.931 70.522 298.221 70.3132 298.592C70.1087 298.958 70.0064 299.382 70.0064 299.864V306H68.4979Z" fill="black"/>
<path d="M114.606 292.572V295.47C114.606 298.404 116.442 301.338 118.782 302.454L117.918 303.624C116.082 302.706 114.606 300.78 113.868 298.512C113.166 300.906 111.672 302.94 109.854 303.912L108.954 302.742C111.294 301.572 113.13 298.458 113.13 295.47V292.572H114.606ZM120.78 291.186H122.256V307.35H120.78V297.864H117.036V296.658H120.78V291.186ZM132.803 292.482C130.157 292.482 128.645 293.094 128.645 294.174C128.645 295.254 130.157 295.866 132.803 295.866C135.449 295.866 136.961 295.254 136.961 294.174C136.961 293.094 135.449 292.482 132.803 292.482ZM132.803 296.964C129.257 296.964 127.133 295.992 127.133 294.174C127.133 292.356 129.257 291.366 132.803 291.366C136.367 291.366 138.473 292.356 138.473 294.174C138.473 295.992 136.367 296.964 132.803 296.964ZM140.093 299.214H133.541V300.726H138.239V304.362H128.753V306H138.725V307.152H127.313V303.282H136.781V301.842H127.277V300.726H132.065V299.214H125.513V298.026H140.093V299.214ZM152.786 292.572V295.47C152.786 298.404 154.622 301.338 156.962 302.454L156.098 303.624C154.262 302.706 152.786 300.78 152.048 298.512C151.346 300.906 149.852 302.94 148.034 303.912L147.134 302.742C149.474 301.572 151.31 298.458 151.31 295.47V292.572H152.786ZM158.96 291.186H160.436V307.35H158.96V297.864H155.216V296.658H158.96V291.186ZM165.726 294.354V302.13C167.886 302.112 169.416 302.022 171.18 301.644L171.306 302.868C169.38 303.282 167.742 303.354 165.33 303.354H164.268V293.148H170.28V294.354H165.726ZM175.986 291.186H177.408V307.332H175.986V298.872H173.7V306.522H172.314V291.546H173.7V297.666H175.986V291.186ZM191.519 296.424V293.13H183.563V296.424H191.519ZM192.977 291.942V297.612H182.123V291.942H192.977ZM183.563 302.364V305.766H193.247V306.972H182.087V302.364H183.563ZM180.215 299.448H194.885V300.636H188.405V303.894H186.929V300.636H180.215V299.448ZM211.425 299.178V300.384H204.837V307.35H203.343V300.384H196.827V299.178H207.537C208.041 296.856 208.041 295.146 208.041 293.634V293.418H198.645V292.23H209.481V293.634C209.481 295.146 209.481 296.856 209.031 299.178H211.425ZM227.881 299.106L227.197 300.258C225.361 299.682 223.939 298.512 223.219 296.982C222.535 298.692 221.077 300.024 219.187 300.672L218.449 299.502C220.843 298.764 222.463 296.82 222.463 294.66V294.336H218.881V293.148H222.463V291.096H223.939V293.148H227.503V294.336H223.939V294.66C223.939 296.622 225.505 298.404 227.881 299.106ZM225.829 306.162C228.205 306.162 229.663 305.514 229.663 304.398C229.663 303.282 228.205 302.634 225.829 302.634C223.417 302.634 221.977 303.282 221.977 304.398C221.977 305.514 223.417 306.162 225.829 306.162ZM225.829 301.482C229.123 301.482 231.139 302.526 231.139 304.398C231.139 306.252 229.123 307.296 225.829 307.296C222.499 307.296 220.501 306.252 220.501 304.398C220.501 302.526 222.499 301.482 225.829 301.482ZM230.959 295.362H233.353V296.586H230.959V301.086H229.483V291.186H230.959V295.362ZM243.539 296.154H246.797V291.204H248.291V303.246H246.797V297.378H243.539V296.154ZM244.529 299.808L243.809 300.978C241.955 300.366 240.515 299.088 239.777 297.45C239.093 299.232 237.653 300.6 235.763 301.266L235.025 300.114C237.419 299.304 239.021 297.288 239.021 295.038V294.534H235.439V293.346H239.021V291.276H240.497V293.346H244.061V294.534H240.497V295.038C240.497 297.18 242.135 299.052 244.529 299.808ZM239.453 305.766H248.741V306.972H237.959V302.166H239.453V305.766ZM258.856 306.18C261.376 306.18 262.87 305.55 262.87 304.416C262.87 303.282 261.376 302.652 258.856 302.652C256.3 302.652 254.806 303.282 254.806 304.416C254.806 305.55 256.3 306.18 258.856 306.18ZM258.856 301.5C262.276 301.5 264.364 302.544 264.364 304.416C264.364 306.288 262.276 307.332 258.856 307.332C255.4 307.332 253.312 306.288 253.312 304.416C253.312 302.544 255.4 301.5 258.856 301.5ZM259.594 299.16H266.164V300.348H251.548V299.16H258.118V297.288H253.384V291.924H264.346V293.112H254.86V296.1H264.454V297.288H259.594V299.16Z" fill="black"/>
<line x1="100.5" y1="290" x2="100.5" y2="308" stroke="#E1E1E1"/>
<path d="M288 296L294.5 302.5L301 296" stroke="black"/>
<defs>
<filter id="filter0_d_458_3875" x="0" y="0" width="413" height="350" filterUnits="userSpaceOnUse" color-interpolation-filters="sRGB">
<feFlood flood-opacity="0" result="BackgroundImageFix"/>
<feColorMatrix in="SourceAlpha" type="matrix" values="0 0 0 0 0 0 0 0 0 0 0 0 0 0 0 0 0 0 127 0" result="hardAlpha"/>
<feOffset dy="-2"/>
<feGaussianBlur stdDeviation="5"/>
<feComposite in2="hardAlpha" operator="out"/>
<feColorMatrix type="matrix" values="0 0 0 0 0 0 0 0 0 0 0 0 0 0 0 0 0 0 0.15 0"/>
<feBlend mode="normal" in2="BackgroundImageFix" result="effect1_dropShadow_458_3875"/>
<feBlend mode="normal" in="SourceGraphic" in2="effect1_dropShadow_458_3875" result="shape"/>
</filter>
</defs>
</svg>
