<svg width="413" height="130" viewBox="0 0 413 130" fill="none" xmlns="http://www.w3.org/2000/svg">
<g filter="url(#filter0_d_485_3751)">
<path d="M10 77C10 65.9543 18.9543 57 30 57H383C394.046 57 403 65.9543 403 77V122H10V77Z" fill="white"/>
</g>
<path d="M46.6174 89.606V86.528H44.4574V84.638H46.6174V82.982H44.4574V81.092H46.6174V76.97H48.9934V89.606H46.6174ZM44.2774 78.716V80.57H35.1874V78.716H38.6614V76.916H41.0374V78.716H44.2774ZM38.1934 84.404C38.1934 85.34 38.8774 85.844 39.8494 85.844C40.8034 85.844 41.4874 85.34 41.4874 84.404C41.4874 83.504 40.8034 82.982 39.8494 82.982C38.8774 82.982 38.1934 83.504 38.1934 84.404ZM43.7194 84.404C43.7194 86.33 42.0994 87.68 39.8494 87.68C37.5814 87.68 35.9614 86.33 35.9614 84.404C35.9614 82.496 37.5814 81.164 39.8494 81.164C42.0994 81.164 43.7194 82.496 43.7194 84.404ZM40.4254 91.37H49.3534V93.26H38.0494V88.58H40.4254V91.37ZM63.788 76.952H66.038V93.53H63.788V85.25H62.438V92.792H60.224V87.986L58.892 89.768C57.416 88.976 56.444 87.644 55.868 85.988C55.328 87.896 54.356 89.444 52.808 90.38L51.386 88.58C53.852 87.14 54.644 84.206 54.644 81.02V80.57H51.926V78.644H59.432V80.57H56.948V81.02C56.948 83.918 57.776 86.672 60.224 87.95V77.222H62.438V83.306H63.788V76.952ZM79.1234 80.516V81.434C79.1234 84.134 80.4554 86.996 83.2274 88.148L81.9314 90.02C80.0054 89.192 78.6914 87.572 77.9534 85.574C77.2154 87.734 75.8834 89.552 73.9394 90.434L72.5894 88.544C75.3614 87.302 76.7114 84.26 76.7114 81.434V80.516H73.2554V78.554H82.5434V80.516H79.1234ZM84.0734 76.97H86.4494V93.548H84.0734V76.97ZM97.95 89.732H104.286V91.676H89.274V89.732H95.574V86.276H91.02V78.104H102.558V80.012H93.414V84.368H102.684V86.276H97.95V89.732ZM111.737 83.846L110.945 82.01C114.023 81.74 115.643 80.66 116.057 79.544H111.665V77.654H123.923V79.544H119.513C119.927 80.66 121.547 81.74 124.643 82.01L123.815 83.846C120.701 83.576 118.667 82.406 117.785 80.84C116.903 82.406 114.869 83.576 111.737 83.846ZM121.097 90.56C121.097 89.714 119.963 89.354 117.749 89.354C115.535 89.354 114.401 89.714 114.401 90.56C114.401 91.388 115.535 91.748 117.749 91.748C119.963 91.748 121.097 91.388 121.097 90.56ZM125.273 86.384H118.973V87.608C121.817 87.842 123.509 88.868 123.509 90.56C123.509 92.468 121.331 93.548 117.749 93.548C114.167 93.548 112.007 92.468 112.007 90.56C112.007 88.85 113.717 87.824 116.597 87.59V86.384H110.297V84.494H125.273V86.384ZM137.008 83.9L135.874 85.754C134.002 85.196 132.724 84.062 131.986 82.604C131.23 84.188 129.88 85.448 127.936 86.06L126.784 84.188C129.556 83.324 130.744 81.218 130.744 79.184V77.582H133.156V79.184C133.156 81.182 134.326 83.126 137.008 83.9ZM131.932 88.958V91.496H138.304V88.958H131.932ZM129.592 93.35V87.104H140.626V93.35H129.592ZM138.232 76.97H140.626V86.33H138.232V76.97Z" fill="black"/>
<path d="M188.013 84.08L185.691 83.81C185.961 82.262 186.033 81.056 186.051 80.066H179.877V78.176H188.391V79.202C188.391 80.354 188.391 81.992 188.013 84.08ZM189.111 84.746L189.255 86.438C185.835 87.068 181.983 87.14 179.139 87.158L178.923 85.268C179.841 85.268 180.867 85.268 181.947 85.25V82.028H184.269V85.16C185.907 85.088 187.563 84.962 189.111 84.746ZM183.711 88.274V91.37H192.909V93.26H181.335V88.274H183.711ZM192.387 82.01H194.367V83.972H192.387V89.372H190.011V76.952H192.387V82.01ZM207.199 89.246V85.124H204.553V83.216H207.199V81.362H204.553V79.472H207.199V76.97H209.575V89.246H207.199ZM204.175 84.872L204.427 86.78C202.357 87.14 200.503 87.212 197.623 87.212H196.345V81.668H201.241V79.994H196.327V78.104H203.581V83.45H198.703V85.304C200.899 85.286 202.447 85.178 204.175 84.872ZM200.881 91.352H209.989V93.242H198.505V88.274H200.881V91.352ZM220.95 89.732H227.286V91.676H212.274V89.732H218.574V86.276H214.02V78.104H225.558V80.012H216.414V84.368H225.684V86.276H220.95V89.732ZM243.071 82.316L242.171 84.17C239.399 83.738 237.383 82.478 236.339 80.804C235.295 82.496 233.261 83.774 230.471 84.224L229.589 82.352C233.243 81.848 235.097 79.796 235.097 77.924V77.402H237.545V77.924C237.545 79.742 239.417 81.812 243.071 82.316ZM232.937 88.418V91.37H242.171V93.26H230.561V88.418H232.937ZM228.815 85.124H243.845V86.996H237.725V89.822H235.349V86.996H228.815V85.124Z" fill="black"/>
<path d="M152.5 89L158.129 82.25H146.871L152.5 89Z" fill="#949494"/>
<path d="M254.5 89L260.129 82.25H248.871L254.5 89Z" fill="#949494"/>
<rect x="145.5" y="0.5" width="119" height="39" rx="19.5" fill="white" stroke="#E9EAEC"/>
<path d="M186.761 24.426V23.238H197.939V28.35H196.463V24.426H186.761ZM188.453 14.022V17.154H196.409V14.022H188.453ZM193.187 20.376H199.739V21.564H185.123V20.376H191.711V18.324H187.013V12.852H197.867V18.324H193.187V20.376ZM203.319 24.714V23.508H214.551V28.188H213.075V24.714H203.319ZM209.763 21.06H216.333V22.266H201.681V21.06H208.269V19.368H203.571V15.426H213.003V13.752H203.535V12.6H214.461V16.524H205.029V18.216H214.803V19.368H209.763V21.06ZM221.444 17.424V20.394H229.688V17.424H221.444ZM226.304 25.056H232.892V26.262H218.258V25.056H224.81V21.582H219.986V13.338H221.444V16.218H229.688V13.338H231.128V21.582H226.304V25.056ZM235.77 13.932H243.33C243.33 18.594 241.188 22.698 235.824 25.326L235.032 24.12C239.37 22.05 241.53 18.954 241.836 15.12H235.77V13.932ZM246.588 12.186H248.064V28.332H246.588V12.186Z" fill="black"/>
<path d="M161 13H178.803" stroke="#0DC257" stroke-width="2" stroke-linecap="round"/>
<path d="M161 20H178.803" stroke="#0DC257" stroke-width="2" stroke-linecap="round"/>
<path d="M161 27H178.803" stroke="#0DC257" stroke-width="2" stroke-linecap="round"/>
<defs>
<filter id="filter0_d_485_3751" x="0" y="45" width="413" height="85" filterUnits="userSpaceOnUse" color-interpolation-filters="sRGB">
<feFlood flood-opacity="0" result="BackgroundImageFix"/>
<feColorMatrix in="SourceAlpha" type="matrix" values="0 0 0 0 0 0 0 0 0 0 0 0 0 0 0 0 0 0 127 0" result="hardAlpha"/>
<feOffset dy="-2"/>
<feGaussianBlur stdDeviation="5"/>
<feComposite in2="hardAlpha" operator="out"/>
<feColorMatrix type="matrix" values="0 0 0 0 0 0 0 0 0 0 0 0 0 0 0 0 0 0 0.15 0"/>
<feBlend mode="normal" in2="BackgroundImageFix" result="effect1_dropShadow_485_3751"/>
<feBlend mode="normal" in="SourceGraphic" in2="effect1_dropShadow_485_3751" result="shape"/>
</filter>
</defs>
</svg>
