<svg width="285" height="49" viewBox="0 0 285 49" fill="none" xmlns="http://www.w3.org/2000/svg">
<rect width="285" height="49" fill="#2F6AE9"/>
<path d="M132.551 16.114H134.045V32.422H132.551V16.114ZM133.379 22.522H136.385V23.764H133.379V22.522ZM121.751 26.896H122.471C123.389 26.896 124.613 26.878 126.017 26.554L126.161 27.796C124.667 28.138 123.461 28.156 122.471 28.156H121.751V26.896ZM121.751 17.842H125.855V19.048H123.227V27.508H121.751V17.842ZM126.773 26.896H127.565C129.149 26.896 130.283 26.86 131.597 26.518L131.741 27.76C130.355 28.102 129.239 28.156 127.565 28.156H126.773V26.896ZM126.773 17.842H131.093V19.048H128.249V27.526H126.773V17.842ZM148.857 16.114H150.351V32.422H148.857V16.114ZM149.991 22.594H153.015V23.854H149.991V22.594ZM138.489 27.256H139.785C142.845 27.256 144.969 27.148 147.435 26.68L147.597 27.922C145.059 28.372 142.899 28.498 139.785 28.498H138.489V27.256ZM138.453 17.644H145.815V23.476H139.965V27.76H138.489V22.252H144.339V18.868H138.453V17.644ZM165.398 16.114H166.91V32.404H165.398V16.114ZM166.496 22.72H169.502V23.962H166.496V22.72ZM161.24 17.878H162.698C162.698 22.504 160.574 26.68 155.318 29.326L154.49 28.174C158.99 25.888 161.24 22.414 161.24 18.112V17.878ZM155.246 17.878H162.014V19.102H155.246V17.878ZM182.803 16.132H184.297V32.404H182.803V16.132ZM178.033 17.878H179.509C179.509 22.594 177.385 26.716 171.949 29.38L171.157 28.174C175.855 25.906 178.033 22.45 178.033 18.13V17.878ZM171.895 17.878H178.681V19.102H171.895V17.878Z" fill="white"/>
<path d="M107.808 16.0233C109.246 16.0233 110.423 14.893 110.423 13.5116C110.423 12.1302 109.246 11 107.808 11C106.369 11 105.192 12.1302 105.192 13.5116C105.192 14.893 106.369 16.0233 107.808 16.0233ZM102.969 20.293L99.3077 38H102.054L104.408 27.9535L107.154 30.4651V38H109.769V28.5814L107.023 26.0698L107.808 22.3023C109.508 24.186 112.123 25.4419 115 25.4419V22.9302C112.515 22.9302 110.423 21.6744 109.377 19.9163L108.069 17.907C107.546 17.1535 106.762 16.6512 105.846 16.6512C105.454 16.6512 105.192 16.7767 104.8 16.7767L98 19.5395V25.4419H100.615V21.1721L102.969 20.293Z" fill="white"/>
</svg>
