<svg width="371" height="112" viewBox="0 0 371 112" fill="none" xmlns="http://www.w3.org/2000/svg">
<g filter="url(#filter0_d_278_3559)">
<rect x="4" width="363" height="104" fill="white"/>
<rect x="4.5" y="0.5" width="362" height="103" stroke="#2F6AE9"/>
</g>
<rect x="19.5" y="9.5" width="29" height="19" rx="9.5" fill="white" stroke="#006BFF"/>
<path d="M29.4708 20.49H30.2908V23.79H29.4708V20.49ZM25.8008 20.2H33.9708V20.89H25.8008V20.2ZM29.4608 16.29H30.1908V16.52C30.1908 18.08 28.5008 19.23 26.6008 19.52L26.3108 18.86C27.9408 18.64 29.4608 17.65 29.4608 16.52V16.29ZM29.5708 16.29H30.2908V16.52C30.2908 17.64 31.8208 18.64 33.4408 18.86L33.1408 19.52C31.2508 19.24 29.5708 18.06 29.5708 16.52V16.29ZM26.5908 15.85H33.1808V16.53H26.5908V15.85ZM29.4708 14.74H30.2908V16.09H29.4708V14.74ZM37.25 16.44H37.93V16.89C37.93 18.52 36.94 19.86 35.43 20.39L35.02 19.74C36.36 19.28 37.25 18.16 37.25 16.89V16.44ZM37.39 16.44H38.08V16.89C38.08 18.09 39 19.15 40.34 19.57L39.93 20.23C38.42 19.73 37.39 18.45 37.39 16.89V16.44ZM35.25 15.95H40.07V16.62H35.25V15.95ZM37.25 14.8H38.08V16.2H37.25V14.8ZM39.77 17.52H42.05V18.21H39.77V17.52ZM41.6 14.75H42.43V21.49H41.6V14.75ZM36.66 22.9H42.68V23.58H36.66V22.9ZM36.66 20.89H37.49V23.27H36.66V20.89Z" fill="#2F6AE9"/>
<path d="M60.9278 12.944H62.5358V24.056H60.9278V12.944ZM62.1158 17.192H64.0718V18.5H62.1158V17.192ZM58.0118 14.096H59.5718C59.5718 17.432 58.2998 20.288 54.6038 22.148L53.7158 20.936C56.6318 19.424 58.0118 17.384 58.0118 14.372V14.096ZM54.3278 14.096H58.8278V15.38H54.3278V14.096ZM67.3348 14.192H68.6428V14.888C68.6428 17.012 67.6468 18.92 65.4988 19.628L64.7068 18.368C66.5548 17.756 67.3348 16.304 67.3348 14.888V14.192ZM67.6588 14.192H68.9548V14.888C68.9548 16.184 69.6988 17.456 71.4868 17.996L70.7308 19.244C68.6188 18.608 67.6588 16.868 67.6588 14.888V14.192ZM65.1268 13.7H71.1268V14.972H65.1268V13.7ZM72.0148 12.956H73.6108V19.544H72.0148V12.956ZM73.1668 15.512H75.0868V16.82H73.1668V15.512ZM69.9868 19.748C72.2908 19.748 73.7428 20.552 73.7428 21.908C73.7428 23.264 72.2908 24.068 69.9868 24.068C67.6708 24.068 66.2188 23.264 66.2188 21.908C66.2188 20.552 67.6708 19.748 69.9868 19.748ZM69.9868 20.996C68.5708 20.996 67.8028 21.284 67.8028 21.908C67.8028 22.532 68.5708 22.844 69.9868 22.844C71.4028 22.844 72.1588 22.532 72.1588 21.908C72.1588 21.284 71.4028 20.996 69.9868 20.996ZM83.4859 12.956H85.0579V24.068H83.4859V12.956ZM84.1939 17.06H86.1499V18.368H84.1939V17.06ZM75.9619 13.964H77.2699V16.52H77.9299V13.964H79.2139V21.5H75.9619V13.964ZM77.2699 17.768V20.216H77.9299V17.768H77.2699ZM79.6459 13.964H80.9299V16.52H81.6019V13.964H82.9099V21.5H79.6459V13.964ZM80.9299 17.768V20.216H81.6019V17.768H80.9299ZM86.9409 18.956H97.0089V20.228H86.9409V18.956ZM88.2009 22.604H96.0369V23.876H88.2009V22.604ZM88.2009 20.84H89.7969V23.156H88.2009V20.84ZM88.1769 13.208H95.7849V16.292H89.7729V17.444H88.1889V15.164H94.2129V14.42H88.1769V13.208ZM88.1889 17.072H96.0009V18.272H88.1889V17.072ZM100.197 21.8068L100.151 22.2756C100.114 22.6506 100.043 23.0241 99.9375 23.3963C99.8352 23.7713 99.7273 24.1108 99.6136 24.4148C99.5028 24.7188 99.4134 24.9574 99.3452 25.1307H98.169C98.2116 24.9631 98.2699 24.7287 98.3438 24.4276C98.4176 24.1293 98.4872 23.794 98.5526 23.4219C98.6179 23.0497 98.6591 22.6705 98.6761 22.2841L98.6974 21.8068H100.197ZM105.216 13.448H112.26V14.72H105.216V13.448ZM103.98 18.26H114.036V19.532H103.98V18.26ZM111.3 13.448H112.872V14.492C112.872 15.668 112.872 16.904 112.512 18.632L110.94 18.476C111.3 16.832 111.3 15.632 111.3 14.492V13.448ZM111.78 15.704V16.856L105.096 17.132L104.904 15.848L111.78 15.704ZM105.144 22.604H113.028V23.876H105.144V22.604ZM105.144 20.336H106.74V22.916H105.144V20.336ZM122.651 12.956H124.259V18.536H122.651V12.956ZM119.159 13.364H120.911C120.911 16.412 119.243 18.056 115.739 18.764L115.187 17.48C118.151 16.952 119.159 15.752 119.159 14.276V13.364ZM115.775 13.364H120.287V14.636H115.775V13.364ZM116.843 18.992H124.259V22.004H118.463V23.216H116.867V20.864H122.651V20.216H116.843V18.992ZM116.867 22.724H124.535V23.96H116.867V22.724ZM126.058 19.172H136.126V20.456H126.058V19.172ZM130.258 20H131.842V24.08H130.258V20ZM131.062 13.328C133.438 13.328 135.082 14.312 135.082 15.836C135.082 17.348 133.438 18.32 131.062 18.32C128.698 18.32 127.054 17.348 127.054 15.836C127.054 14.312 128.698 13.328 131.062 13.328ZM131.062 14.6C129.61 14.6 128.686 15.032 128.686 15.836C128.686 16.628 129.61 17.06 131.062 17.06C132.526 17.06 133.438 16.628 133.438 15.836C133.438 15.032 132.526 14.6 131.062 14.6ZM142.773 15.32H145.353V16.604H142.773V15.32ZM139.641 13.64H140.925V14.84C140.925 17.108 139.977 19.04 137.877 19.808L137.037 18.56C138.873 17.948 139.641 16.412 139.641 14.84V13.64ZM139.989 13.64H141.261V14.852C141.261 16.28 141.993 17.708 143.745 18.308L142.893 19.532C140.901 18.812 139.989 16.952 139.989 14.852V13.64ZM144.801 12.968H146.397V21.164H144.801V12.968ZM139.041 22.604H146.637V23.876H139.041V22.604ZM139.041 20.336H140.649V23.312H139.041V20.336Z" fill="#0067C3"/>
<path d="M28.7603 35.8835C29.8825 35.8835 30.962 36.0717 31.9989 36.4482C33.043 36.8246 33.9734 37.4247 34.7901 38.2486C35.614 39.0724 36.2638 40.1662 36.7397 41.5298C37.2227 42.8864 37.4677 44.5518 37.4748 46.5263C37.4748 48.38 37.2653 50.0348 36.8462 51.4908C36.4343 52.9396 35.8413 54.1719 35.0671 55.1875C34.293 56.2031 33.359 56.9773 32.2653 57.5099C31.1715 58.0355 29.9499 58.2983 28.6005 58.2983C27.1445 58.2983 25.859 58.0178 24.744 57.4567C23.6289 56.8885 22.7305 56.1179 22.0487 55.1449C21.3739 54.1648 20.9656 53.0639 20.8235 51.8423H25.3725C25.5501 52.6378 25.9229 53.2557 26.4911 53.696C27.0593 54.1293 27.7624 54.3459 28.6005 54.3459C30.021 54.3459 31.1005 53.728 31.8391 52.4922C32.5778 51.2493 32.9506 49.5483 32.9577 47.3892H32.8086C32.4819 48.0284 32.0415 48.5788 31.4876 49.0405C30.9336 49.495 30.2979 49.8466 29.5806 50.0952C28.8704 50.3438 28.114 50.468 27.3114 50.468C26.0259 50.468 24.8789 50.1662 23.8704 49.5625C22.8619 48.9588 22.0664 48.1278 21.484 47.0696C20.9016 46.0114 20.6104 44.804 20.6104 43.4474C20.6033 41.9844 20.9407 40.6811 21.6225 39.5376C22.3043 38.3942 23.256 37.4993 24.4776 36.853C25.7063 36.1996 27.1339 35.8764 28.7603 35.8835ZM28.7923 39.5057C28.0749 39.5057 27.4357 39.6761 26.8746 40.017C26.3207 40.358 25.8803 40.8161 25.5536 41.3913C25.234 41.9666 25.0778 42.6094 25.0849 43.3196C25.0849 44.0369 25.2411 44.6832 25.5536 45.2585C25.8732 45.8267 26.3065 46.2812 26.8533 46.6222C27.4073 46.956 28.0394 47.1229 28.7496 47.1229C29.2823 47.1229 29.7759 47.0234 30.2305 46.8246C30.685 46.6257 31.0792 46.3523 31.413 46.0043C31.7539 45.6491 32.0202 45.2408 32.212 44.7791C32.4038 44.3175 32.4996 43.8274 32.4996 43.3089C32.4925 42.62 32.3292 41.9879 32.0096 41.4126C31.69 40.8374 31.2496 40.3757 30.6886 40.0277C30.1275 39.6797 29.4954 39.5057 28.7923 39.5057Z" fill="black"/>
<path d="M40.1027 50.718H54.8447V51.942H40.1027V50.718ZM46.8347 51.33H48.3287V55.074H46.8347V51.33ZM41.9747 56.82H53.2067V58.044H41.9747V56.82ZM41.9747 53.634H43.4507V57.288H41.9747V53.634ZM42.0647 42.636H43.5407V44.706H51.4067V42.636H52.9007V49.152H42.0647V42.636ZM43.5407 45.876V47.946H51.4067V45.876H43.5407Z" fill="#424242"/>
<path d="M24.3652 76.1094C23.9069 76.1094 23.4941 76.0182 23.127 75.8359C22.7598 75.6536 22.4655 75.4036 22.2441 75.0859C22.0228 74.7682 21.9017 74.4062 21.8809 74H22.8184C22.8548 74.362 23.0189 74.6615 23.3105 74.8984C23.6048 75.1328 23.9564 75.25 24.3652 75.25C24.6934 75.25 24.985 75.1732 25.2402 75.0195C25.498 74.8659 25.6999 74.6549 25.8457 74.3867C25.9941 74.1159 26.0684 73.8099 26.0684 73.4687C26.0684 73.1198 25.9915 72.8086 25.8379 72.5352C25.6868 72.2591 25.4785 72.0417 25.2129 71.8828C24.9473 71.724 24.6439 71.6432 24.3027 71.6406C24.0579 71.638 23.8066 71.6758 23.5488 71.7539C23.291 71.8294 23.0788 71.9271 22.9121 72.0469L22.0059 71.9375L22.4902 68H26.6465V68.8594H23.3027L23.0215 71.2187H23.0684C23.2324 71.0885 23.4382 70.9805 23.6855 70.8945C23.9329 70.8086 24.1908 70.7656 24.459 70.7656C24.9486 70.7656 25.3848 70.8828 25.7676 71.1172C26.153 71.349 26.4551 71.6667 26.6738 72.0703C26.8952 72.474 27.0059 72.9349 27.0059 73.4531C27.0059 73.9635 26.8913 74.4193 26.6621 74.8203C26.4355 75.2187 26.123 75.5339 25.7246 75.7656C25.3262 75.9948 24.873 76.1094 24.3652 76.1094ZM31.167 76.1094C30.5785 76.1094 30.0771 75.9492 29.6631 75.6289C29.249 75.306 28.9326 74.8385 28.7139 74.2266C28.4951 73.612 28.3857 72.8698 28.3857 72C28.3857 71.1354 28.4951 70.3971 28.7139 69.7852C28.9352 69.1706 29.2529 68.7018 29.667 68.3789C30.0837 68.0534 30.5837 67.8906 31.167 67.8906C31.7503 67.8906 32.249 68.0534 32.6631 68.3789C33.0798 68.7018 33.3975 69.1706 33.6162 69.7852C33.8376 70.3971 33.9482 71.1354 33.9482 72C33.9482 72.8698 33.8389 73.612 33.6201 74.2266C33.4014 74.8385 33.085 75.306 32.6709 75.6289C32.2568 75.9492 31.7555 76.1094 31.167 76.1094ZM31.167 75.25C31.7503 75.25 32.2035 74.9687 32.5264 74.4062C32.8493 73.8437 33.0107 73.0417 33.0107 72C33.0107 71.3073 32.9365 70.7174 32.7881 70.2305C32.6423 69.7435 32.4313 69.3724 32.1553 69.1172C31.8818 68.862 31.5524 68.7344 31.167 68.7344C30.5889 68.7344 30.137 69.0195 29.8115 69.5898C29.486 70.1576 29.3232 70.9609 29.3232 72C29.3232 72.6927 29.3962 73.2812 29.542 73.7656C29.6878 74.25 29.8975 74.6185 30.1709 74.8711C30.4469 75.1237 30.779 75.25 31.167 75.25ZM37.9326 76.1094C37.4743 76.1094 37.0615 76.0182 36.6943 75.8359C36.3271 75.6536 36.0329 75.4036 35.8115 75.0859C35.5902 74.7682 35.4691 74.4062 35.4482 74H36.3857C36.4222 74.362 36.5863 74.6615 36.8779 74.8984C37.1722 75.1328 37.5238 75.25 37.9326 75.25C38.2607 75.25 38.5524 75.1732 38.8076 75.0195C39.0654 74.8659 39.2673 74.6549 39.4131 74.3867C39.5615 74.1159 39.6357 73.8099 39.6357 73.4687C39.6357 73.1198 39.5589 72.8086 39.4053 72.5352C39.2542 72.2591 39.0459 72.0417 38.7803 71.8828C38.5146 71.724 38.2113 71.6432 37.8701 71.6406C37.6253 71.638 37.374 71.6758 37.1162 71.7539C36.8584 71.8294 36.6462 71.9271 36.4795 72.0469L35.5732 71.9375L36.0576 68H40.2139V68.8594H36.8701L36.5889 71.2187H36.6357C36.7998 71.0885 37.0055 70.9805 37.2529 70.8945C37.5003 70.8086 37.7581 70.7656 38.0264 70.7656C38.516 70.7656 38.9521 70.8828 39.335 71.1172C39.7204 71.349 40.0225 71.6667 40.2412 72.0703C40.4626 72.474 40.5732 72.9349 40.5732 73.4531C40.5732 73.9635 40.4587 74.4193 40.2295 74.8203C40.0029 75.2187 39.6904 75.5339 39.292 75.7656C38.8936 75.9948 38.4404 76.1094 37.9326 76.1094ZM42.1406 76V70H43.0312V70.9375H43.1094C43.2344 70.6172 43.4362 70.3685 43.7148 70.1914C43.9935 70.0117 44.3281 69.9219 44.7188 69.9219C45.1146 69.9219 45.444 70.0117 45.707 70.1914C45.9727 70.3685 46.1797 70.6172 46.3281 70.9375H46.3906C46.5443 70.6276 46.7747 70.3815 47.082 70.1992C47.3893 70.0143 47.7578 69.9219 48.1875 69.9219C48.724 69.9219 49.1628 70.0898 49.5039 70.4258C49.8451 70.7591 50.0156 71.2786 50.0156 71.9844V76H49.0937V71.9844C49.0937 71.5417 48.9727 71.2253 48.7305 71.0352C48.4883 70.8451 48.2031 70.75 47.875 70.75C47.4531 70.75 47.1263 70.8776 46.8945 71.1328C46.6628 71.3854 46.5469 71.7057 46.5469 72.0937V76H45.6094V71.8906C45.6094 71.5495 45.4987 71.2747 45.2773 71.0664C45.056 70.8555 44.7708 70.75 44.4219 70.75C44.1823 70.75 43.9583 70.8138 43.75 70.9414C43.5443 71.069 43.3776 71.2461 43.25 71.4727C43.125 71.6966 43.0625 71.9557 43.0625 72.25V76H42.1406ZM55.0293 76L58.6074 68.9219V68.8594H54.4824V68H59.6074V68.9062L56.0449 76H55.0293ZM63.4648 76.1094C62.9284 76.1094 62.4544 76.0143 62.043 75.8242C61.6341 75.6315 61.3151 75.3672 61.0859 75.0312C60.8568 74.6927 60.7435 74.3073 60.7461 73.875C60.7435 73.5365 60.8099 73.224 60.9453 72.9375C61.0807 72.6484 61.2656 72.4076 61.5 72.2148C61.737 72.0195 62.0013 71.8958 62.293 71.8438V71.7969C61.9102 71.6979 61.6055 71.4831 61.3789 71.1523C61.1523 70.819 61.0404 70.4401 61.043 70.0156C61.0404 69.6094 61.1432 69.2461 61.3516 68.9258C61.5599 68.6055 61.8464 68.3529 62.2109 68.168C62.5781 67.9831 62.9961 67.8906 63.4648 67.8906C63.9284 67.8906 64.3424 67.9831 64.707 68.168C65.0716 68.3529 65.3581 68.6055 65.5664 68.9258C65.7773 69.2461 65.8841 69.6094 65.8867 70.0156C65.8841 70.4401 65.7682 70.819 65.5391 71.1523C65.3125 71.4831 65.0117 71.6979 64.6367 71.7969V71.8438C64.9258 71.8958 65.1862 72.0195 65.418 72.2148C65.6497 72.4076 65.8346 72.6484 65.9727 72.9375C66.1107 73.224 66.181 73.5365 66.1836 73.875C66.181 74.3073 66.0638 74.6927 65.832 75.0312C65.6029 75.3672 65.2839 75.6315 64.875 75.8242C64.4688 76.0143 63.9987 76.1094 63.4648 76.1094ZM63.4648 75.25C63.8268 75.25 64.1393 75.1914 64.4023 75.0742C64.6654 74.957 64.8685 74.7917 65.0117 74.5781C65.1549 74.3646 65.2279 74.1146 65.2305 73.8281C65.2279 73.526 65.1497 73.2591 64.9961 73.0273C64.8424 72.7956 64.6328 72.6133 64.3672 72.4805C64.1042 72.3477 63.8034 72.2812 63.4648 72.2812C63.1237 72.2812 62.819 72.3477 62.5508 72.4805C62.2852 72.6133 62.0755 72.7956 61.9219 73.0273C61.7708 73.2591 61.6966 73.526 61.6992 73.8281C61.6966 74.1146 61.7656 74.3646 61.9063 74.5781C62.0495 74.7917 62.2539 74.957 62.5195 75.0742C62.7852 75.1914 63.1003 75.25 63.4648 75.25ZM63.4648 71.4531C63.7513 71.4531 64.0052 71.3958 64.2266 71.2812C64.4505 71.1667 64.6263 71.0065 64.7539 70.8008C64.8815 70.5951 64.9466 70.3542 64.9492 70.0781C64.9466 69.8073 64.8828 69.5716 64.7578 69.3711C64.6328 69.168 64.4596 69.0117 64.2383 68.9023C64.0169 68.7904 63.7591 68.7344 63.4648 68.7344C63.1654 68.7344 62.9036 68.7904 62.6797 68.9023C62.4557 69.0117 62.2826 69.168 62.1602 69.3711C62.0378 69.5716 61.9779 69.8073 61.9805 70.0781C61.9779 70.3542 62.0391 70.5951 62.1641 70.8008C62.2917 71.0065 62.4674 71.1667 62.6914 71.2812C62.9154 71.3958 63.1732 71.4531 63.4648 71.4531ZM70.2432 76.1094C69.7067 76.1094 69.2327 76.0143 68.8213 75.8242C68.4124 75.6315 68.0934 75.3672 67.8643 75.0312C67.6351 74.6927 67.5218 74.3073 67.5244 73.875C67.5218 73.5365 67.5882 73.224 67.7236 72.9375C67.859 72.6484 68.0439 72.4076 68.2783 72.2148C68.5153 72.0195 68.7796 71.8958 69.0713 71.8438V71.7969C68.6885 71.6979 68.3838 71.4831 68.1572 71.1523C67.9307 70.819 67.8187 70.4401 67.8213 70.0156C67.8187 69.6094 67.9215 69.2461 68.1299 68.9258C68.3382 68.6055 68.6247 68.3529 68.9893 68.168C69.3564 67.9831 69.7744 67.8906 70.2432 67.8906C70.7067 67.8906 71.1208 67.9831 71.4854 68.168C71.8499 68.3529 72.1364 68.6055 72.3447 68.9258C72.5557 69.2461 72.6624 69.6094 72.665 70.0156C72.6624 70.4401 72.5465 70.819 72.3174 71.1523C72.0908 71.4831 71.79 71.6979 71.415 71.7969V71.8438C71.7041 71.8958 71.9645 72.0195 72.1963 72.2148C72.4281 72.4076 72.613 72.6484 72.751 72.9375C72.889 73.224 72.9593 73.5365 72.9619 73.875C72.9593 74.3073 72.8421 74.6927 72.6104 75.0312C72.3812 75.3672 72.0622 75.6315 71.6533 75.8242C71.2471 76.0143 70.777 76.1094 70.2432 76.1094ZM70.2432 75.25C70.6051 75.25 70.9176 75.1914 71.1807 75.0742C71.4437 74.957 71.6468 74.7917 71.79 74.5781C71.9333 74.3646 72.0062 74.1146 72.0088 73.8281C72.0062 73.526 71.9281 73.2591 71.7744 73.0273C71.6208 72.7956 71.4111 72.6133 71.1455 72.4805C70.8825 72.3477 70.5817 72.2812 70.2432 72.2812C69.902 72.2812 69.5973 72.3477 69.3291 72.4805C69.0635 72.6133 68.8538 72.7956 68.7002 73.0273C68.5492 73.2591 68.4749 73.526 68.4775 73.8281C68.4749 74.1146 68.5439 74.3646 68.6846 74.5781C68.8278 74.7917 69.0322 74.957 69.2979 75.0742C69.5635 75.1914 69.8786 75.25 70.2432 75.25ZM70.2432 71.4531C70.5296 71.4531 70.7835 71.3958 71.0049 71.2812C71.2288 71.1667 71.4046 71.0065 71.5322 70.8008C71.6598 70.5951 71.7249 70.3542 71.7275 70.0781C71.7249 69.8073 71.6611 69.5716 71.5361 69.3711C71.4111 69.168 71.238 69.0117 71.0166 68.9023C70.7952 68.7904 70.5374 68.7344 70.2432 68.7344C69.9437 68.7344 69.682 68.7904 69.458 68.9023C69.234 69.0117 69.0609 69.168 68.9385 69.3711C68.8161 69.5716 68.7562 69.8073 68.7588 70.0781C68.7562 70.3542 68.8174 70.5951 68.9424 70.8008C69.07 71.0065 69.2458 71.1667 69.4697 71.2812C69.6937 71.3958 69.9515 71.4531 70.2432 71.4531ZM84.5346 66.914H85.4476V72.007H84.5346V66.914ZM82.3786 69.301H84.6776V70.038H82.3786V69.301ZM81.3446 67.398H82.3016C82.3016 69.873 80.5856 71.49 77.7366 72.216L77.4176 71.479C79.9366 70.863 81.3446 69.554 81.3446 67.805V67.398ZM77.9456 67.398H82.0816V68.135H77.9456V67.398ZM79.0456 72.436H85.4476V74.889H79.9806V76.462H79.0786V74.185H84.5456V73.173H79.0456V72.436ZM79.0786 76.033H85.7776V76.759H79.0786V76.033ZM91.8818 67.134C94.0268 67.134 95.3798 67.838 95.3798 69.015C95.3798 70.192 94.0268 70.885 91.8818 70.885C89.7258 70.885 88.3838 70.192 88.3838 69.015C88.3838 67.838 89.7258 67.134 91.8818 67.134ZM91.8818 67.86C90.2978 67.86 89.3188 68.278 89.3188 69.015C89.3188 69.741 90.2978 70.17 91.8818 70.17C93.4548 70.17 94.4448 69.741 94.4448 69.015C94.4448 68.278 93.4548 67.86 91.8818 67.86ZM88.4828 73.448H95.2698V76.726H88.4828V73.448ZM94.3788 74.185H89.3848V75.989H94.3788V74.185ZM87.3828 71.743H96.3698V72.48H87.3828V71.743Z" fill="black"/>
<path d="M27.1508 80.925H28.0638V87.635H27.1508V80.925ZM20.2978 81.761H26.1168V82.443H20.2978V81.761ZM23.2128 82.817C24.6428 82.817 25.5778 83.367 25.5778 84.247C25.5778 85.127 24.6428 85.688 23.2128 85.688C21.7938 85.688 20.8588 85.127 20.8588 84.247C20.8588 83.367 21.7938 82.817 23.2128 82.817ZM23.2128 83.444C22.3108 83.444 21.7168 83.752 21.7168 84.247C21.7168 84.742 22.3108 85.05 23.2128 85.05C24.1258 85.05 24.7088 84.742 24.7088 84.247C24.7088 83.752 24.1258 83.444 23.2128 83.444ZM22.7508 80.826H23.6748V82.091H22.7508V80.826ZM22.7508 85.358H23.6748V86.711H22.7508V85.358ZM20.0998 87.162L19.9788 86.447C21.7938 86.447 24.2578 86.436 26.3588 86.139L26.4248 86.777C24.2578 87.129 21.8818 87.162 20.0998 87.162ZM24.8298 87.789C26.9198 87.789 28.1188 88.317 28.1188 89.318C28.1188 90.319 26.9198 90.847 24.8298 90.847C22.7178 90.847 21.5188 90.319 21.5188 89.318C21.5188 88.317 22.7178 87.789 24.8298 87.789ZM24.8298 88.46C23.3008 88.46 22.4318 88.757 22.4318 89.318C22.4318 89.879 23.3008 90.176 24.8298 90.176C26.3478 90.176 27.2168 89.879 27.2168 89.318C27.2168 88.757 26.3478 88.46 24.8298 88.46ZM36.8519 80.903H37.7649V88.108H36.8519V80.903ZM37.4899 83.862H39.2389V84.621H37.4899V83.862ZM30.5049 85.6H31.2749C33.3209 85.6 34.4759 85.545 35.8069 85.27L35.9059 86.007C34.5419 86.293 33.3649 86.359 31.2749 86.359H30.5049V85.6ZM30.5049 81.761H34.8939V82.52H31.4069V86.007H30.5049V81.761ZM31.5719 89.89H38.2159V90.638H31.5719V89.89ZM31.5719 87.393H32.4849V90.231H31.5719V87.393ZM40.173 88.834H49.182V89.593H40.173V88.834ZM44.199 86.458H45.112V89.054H44.199V86.458ZM41.229 81.618H42.131V83.389H47.202V81.618H48.104V86.7H41.229V81.618ZM42.131 84.126V85.952H47.202V84.126H42.131ZM51.4252 85.556H58.2562V86.304H51.4252V85.556ZM50.2922 88.845H59.3012V89.615H50.2922V88.845ZM54.3182 85.875H55.2312V89.153H54.3182V85.875ZM51.4252 81.706H58.1572V82.454H52.3382V85.886H51.4252V81.706ZM63.7832 90V89.2969L66.4238 86.4062C66.7337 86.0677 66.9889 85.7734 67.1895 85.5234C67.39 85.2708 67.5384 85.0339 67.6348 84.8125C67.7337 84.5885 67.7832 84.3542 67.7832 84.1094C67.7832 83.8281 67.7155 83.5846 67.5801 83.3789C67.4473 83.1732 67.265 83.0143 67.0332 82.9023C66.8014 82.7904 66.541 82.7344 66.252 82.7344C65.9447 82.7344 65.6764 82.7982 65.4473 82.9258C65.2207 83.0508 65.0449 83.2266 64.9199 83.4531C64.7975 83.6797 64.7363 83.9453 64.7363 84.25H63.8145C63.8145 83.7812 63.9225 83.3698 64.1387 83.0156C64.3548 82.6615 64.6491 82.3854 65.0215 82.1875C65.3965 81.9896 65.8171 81.8906 66.2832 81.8906C66.752 81.8906 67.1673 81.9896 67.5293 82.1875C67.8913 82.3854 68.1751 82.6523 68.3809 82.9883C68.5866 83.3242 68.6895 83.6979 68.6895 84.1094C68.6895 84.4036 68.6361 84.6914 68.5293 84.9727C68.4251 85.2513 68.2428 85.5625 67.9824 85.9062C67.7246 86.2474 67.3665 86.6641 66.9082 87.1562L65.1113 89.0781V89.1406H68.8301V90H63.7832Z" fill="black"/>
<defs>
<filter id="filter0_d_278_3559" x="0" y="0" width="371" height="112" filterUnits="userSpaceOnUse" color-interpolation-filters="sRGB">
<feFlood flood-opacity="0" result="BackgroundImageFix"/>
<feColorMatrix in="SourceAlpha" type="matrix" values="0 0 0 0 0 0 0 0 0 0 0 0 0 0 0 0 0 0 127 0" result="hardAlpha"/>
<feOffset dy="4"/>
<feGaussianBlur stdDeviation="2"/>
<feComposite in2="hardAlpha" operator="out"/>
<feColorMatrix type="matrix" values="0 0 0 0 0 0 0 0 0 0 0 0 0 0 0 0 0 0 0.25 0"/>
<feBlend mode="normal" in2="BackgroundImageFix" result="effect1_dropShadow_278_3559"/>
<feBlend mode="normal" in="SourceGraphic" in2="effect1_dropShadow_278_3559" result="shape"/>
</filter>
</defs>
</svg>
