<svg width="20" height="30" viewBox="0 0 20 30" fill="none" xmlns="http://www.w3.org/2000/svg">
<path d="M10 18.9474C12.3714 18.9474 14.2714 16.8316 14.2714 14.2105L14.2857 4.73684C14.2857 2.11579 12.3714 0 10 0C7.62857 0 5.71429 2.11579 5.71429 4.73684V14.2105C5.71429 16.8316 7.62857 18.9474 10 18.9474ZM8.28571 4.57895C8.28571 3.53684 9.05714 2.68421 10 2.68421C10.9429 2.68421 11.7143 3.53684 11.7143 4.57895L11.7 14.3684C11.7 15.4105 10.9429 16.2632 10 16.2632C9.05714 16.2632 8.28571 15.4105 8.28571 14.3684V4.57895ZM17.5714 14.2105C17.5714 18.9474 13.9429 22.2632 10 22.2632C6.05714 22.2632 2.42857 18.9474 2.42857 14.2105H0C0 19.5947 3.88571 24.0474 8.57143 24.8211V30H11.4286V24.8211C16.1143 24.0632 20 19.6105 20 14.2105H17.5714Z" fill="black" fill-opacity="0.71"/>
</svg>
