<svg width="387" height="68" viewBox="0 0 387 68" fill="none" xmlns="http://www.w3.org/2000/svg">
<g filter="url(#filter0_d_233_3621)">
<rect x="-9" width="393" height="62" fill="white"/>
</g>
<path d="M2.5 13C2.5 10.5147 4.51472 8.5 7 8.5H325C327.485 8.5 329.5 10.5147 329.5 13V49C329.5 51.4853 327.485 53.5 325 53.5H7C4.51471 53.5 2.5 51.4853 2.5 49V13Z" stroke="#D8D8D8"/>
<path d="M14.7033 24.868H16.6293V25.48C16.6293 28.378 15.1353 30.952 11.9673 31.87L10.8333 30.016C13.5333 29.26 14.7033 27.352 14.7033 25.48V24.868ZM15.1533 24.868H17.0973V25.48C17.0973 27.172 18.2493 28.9 20.9313 29.602L19.8513 31.474C16.6473 30.628 15.1533 28.18 15.1533 25.48V24.868ZM11.4273 23.662H20.3733V25.534H11.4273V23.662ZM14.7033 21.88H17.0973V24.4H14.7033V21.88ZM21.6873 21.934H24.0813V31.978H21.6873V21.934ZM23.4153 25.84H26.2953V27.802H23.4153V25.84ZM18.6453 32.284C22.1193 32.284 24.2793 33.454 24.2793 35.452C24.2793 37.45 22.1193 38.602 18.6453 38.602C15.1533 38.602 12.9933 37.45 12.9933 35.452C12.9933 33.454 15.1533 32.284 18.6453 32.284ZM18.6453 34.12C16.5033 34.12 15.3693 34.534 15.3693 35.452C15.3693 36.352 16.5033 36.784 18.6453 36.784C20.7693 36.784 21.9033 36.352 21.9033 35.452C21.9033 34.534 20.7693 34.12 18.6453 34.12ZM31.2619 25.192H33.2059V25.84C33.2059 28.882 31.7299 31.6 28.5619 32.59L27.4099 30.718C30.1099 29.872 31.2619 27.856 31.2619 25.84V25.192ZM31.6939 25.192H33.6559V25.84C33.6559 27.712 34.8259 29.638 37.5259 30.448L36.3739 32.32C33.2239 31.384 31.6939 28.756 31.6939 25.84V25.192ZM27.9859 23.896H36.9319V25.768H27.9859V23.896ZM31.2619 22.06H33.6559V24.598H31.2619V22.06ZM36.4099 26.776H40.2799V28.738H36.4099V26.776ZM39.0739 21.952H41.4679V34.282H39.0739V21.952ZM30.4699 36.406H41.8459V38.314H30.4699V36.406ZM30.4699 33.256H32.8639V37.666H30.4699V33.256ZM44.0764 30.16H59.1604V32.068H44.0764V30.16ZM50.6104 31.366H53.0224V34.876H50.6104V31.366ZM45.9304 22.636H57.2524V28.828H45.9304V22.636ZM54.8944 24.508H48.2704V26.956H54.8944V24.508ZM45.8224 36.406H57.5044V38.314H45.8224V36.406ZM45.8224 33.472H48.1984V37.036H45.8224V33.472ZM64.487 31.798H66.881V34.498H64.487V31.798ZM71.489 21.934H73.901V38.602H71.489V21.934ZM73.055 28.702H75.989V30.682H73.055V28.702ZM60.743 35.83L60.455 33.904C63.335 33.904 67.295 33.886 70.661 33.418L70.841 35.146C67.331 35.83 63.551 35.83 60.743 35.83ZM60.761 23.77H70.571V25.642H60.761V23.77ZM65.693 26.308C68.069 26.308 69.761 27.568 69.761 29.422C69.761 31.294 68.069 32.554 65.693 32.554C63.299 32.554 61.625 31.294 61.625 29.422C61.625 27.568 63.299 26.308 65.693 26.308ZM65.693 28.108C64.595 28.108 63.893 28.576 63.893 29.422C63.893 30.286 64.595 30.754 65.693 30.754C66.773 30.754 67.493 30.286 67.493 29.422C67.493 28.576 66.773 28.108 65.693 28.108ZM64.487 22.024H66.881V25.174H64.487V22.024ZM84.6456 32.302C88.2456 32.302 90.5496 33.49 90.5496 35.47C90.5496 37.414 88.2456 38.602 84.6456 38.602C81.0456 38.602 78.7416 37.414 78.7416 35.47C78.7416 33.49 81.0456 32.302 84.6456 32.302ZM84.6456 34.102C82.3956 34.102 81.1176 34.57 81.1176 35.47C81.1176 36.352 82.3956 36.802 84.6456 36.802C86.8956 36.802 88.1736 36.352 88.1736 35.47C88.1736 34.57 86.8956 34.102 84.6456 34.102ZM78.9216 22.672H89.4696V24.562H78.9216V22.672ZM77.2296 29.368H92.2416V31.276H77.2296V29.368ZM82.7916 26.47H85.1676V29.854H82.7916V26.47ZM88.0836 22.672H90.4596V24.04C90.4596 25.354 90.4596 26.776 90.0096 28.504L87.6336 28.252C88.0836 26.542 88.0836 25.336 88.0836 24.04V22.672ZM98.0902 30.484H100.484V34.138H98.0902V30.484ZM105.398 21.934H107.792V34.552H105.398V21.934ZM95.7862 36.406H108.152V38.314H95.7862V36.406ZM95.7862 33.364H98.1802V36.91H95.7862V33.364ZM93.9862 31.204L93.6982 29.296C96.7402 29.296 100.808 29.26 104.3 28.81L104.444 30.52C100.898 31.114 96.9922 31.204 93.9862 31.204ZM102.248 31.618H105.92V33.256H102.248V31.618ZM99.0622 22.51C101.492 22.51 103.202 23.716 103.202 25.48C103.202 27.262 101.492 28.45 99.0622 28.45C96.6142 28.45 94.9042 27.262 94.9042 25.48C94.9042 23.716 96.6142 22.51 99.0622 22.51ZM99.0622 24.256C97.9462 24.256 97.1722 24.67 97.1722 25.48C97.1722 26.29 97.9462 26.704 99.0622 26.704C100.16 26.704 100.934 26.29 100.934 25.48C100.934 24.67 100.16 24.256 99.0622 24.256Z" fill="black"/>
<path d="M365.659 37.4687L346.759 18.5686L348.58 16.7471L367.48 35.6472L365.659 37.4687ZM348.596 37.4687L346.759 35.6316L365.643 16.7471L367.48 18.5842L348.596 37.4687Z" fill="black"/>
<defs>
<filter id="filter0_d_233_3621" x="-12" y="0" width="399" height="68" filterUnits="userSpaceOnUse" color-interpolation-filters="sRGB">
<feFlood flood-opacity="0" result="BackgroundImageFix"/>
<feColorMatrix in="SourceAlpha" type="matrix" values="0 0 0 0 0 0 0 0 0 0 0 0 0 0 0 0 0 0 127 0" result="hardAlpha"/>
<feOffset dy="3"/>
<feGaussianBlur stdDeviation="1.5"/>
<feComposite in2="hardAlpha" operator="out"/>
<feColorMatrix type="matrix" values="0 0 0 0 0 0 0 0 0 0 0 0 0 0 0 0 0 0 0.1 0"/>
<feBlend mode="normal" in2="BackgroundImageFix" result="effect1_dropShadow_233_3621"/>
<feBlend mode="normal" in="SourceGraphic" in2="effect1_dropShadow_233_3621" result="shape"/>
</filter>
</defs>
</svg>
