<svg width="108" height="49" viewBox="0 0 108 49" fill="none" xmlns="http://www.w3.org/2000/svg">
<rect width="108" height="49" fill="#596473"/>
<path d="M39.2248 17.978H40.4668V19.634C40.4668 22.766 38.7028 25.358 35.9848 26.42L35.1928 25.214C37.6408 24.314 39.2248 22.118 39.2248 19.634V17.978ZM39.4948 17.978H40.7188V19.742C40.7188 21.938 42.3388 23.972 44.6788 24.782L43.8868 25.952C41.2768 24.98 39.4948 22.568 39.4948 19.742V17.978ZM46.4068 17.132H47.9008V26.996H46.4068V17.132ZM47.4868 21.326H50.3128V22.586H47.4868V21.326ZM42.7168 27.446C46.0468 27.446 48.0628 28.544 48.0628 30.416C48.0628 32.288 46.0468 33.368 42.7168 33.368C39.3868 33.368 37.3708 32.288 37.3708 30.416C37.3708 28.544 39.3868 27.446 42.7168 27.446ZM42.7168 28.634C40.3048 28.634 38.8288 29.282 38.8288 30.416C38.8288 31.55 40.3048 32.198 42.7168 32.198C45.1288 32.198 46.6048 31.55 46.6048 30.416C46.6048 29.282 45.1288 28.634 42.7168 28.634ZM58.2494 22.946H61.3634V24.188H58.2494V22.946ZM55.2074 18.662H56.3774V21.758C56.3774 25.16 54.9554 28.454 52.5794 29.912L51.6434 28.778C53.8754 27.464 55.2074 24.548 55.2074 21.758V18.662ZM55.4954 18.662H56.6474V21.704C56.6474 24.314 57.8714 27.086 60.0134 28.382L59.1494 29.552C56.8094 28.112 55.4954 24.872 55.4954 21.704V18.662ZM64.2254 17.132H65.6654V33.404H64.2254V17.132ZM60.9314 17.474H62.3354V32.594H60.9314V17.474ZM76.176 20.12H80.532V21.344H76.176V20.12ZM76.032 23.504H80.424V24.728H76.032V23.504ZM80.28 17.132H81.774V26.888H80.28V17.132ZM75.186 18.356H76.788C76.788 22.55 73.89 25.484 69.21 26.888L68.598 25.682C72.756 24.476 75.186 22.082 75.186 19.004V18.356ZM69.444 18.356H76.212V19.58H69.444V18.356ZM76.482 27.068C79.776 27.068 81.864 28.238 81.864 30.2C81.864 32.162 79.776 33.332 76.482 33.332C73.188 33.332 71.1 32.162 71.1 30.2C71.1 28.238 73.188 27.068 76.482 27.068ZM76.482 28.238C74.106 28.238 72.576 28.976 72.576 30.2C72.576 31.424 74.106 32.144 76.482 32.144C78.876 32.144 80.406 31.424 80.406 30.2C80.406 28.976 78.876 28.238 76.482 28.238ZM84.9586 30.164H99.7006V31.406H84.9586V30.164ZM91.5466 26.672H93.0406V30.686H91.5466V26.672ZM86.7406 18.338H97.8826V23.27H88.2706V26.528H86.7946V22.064H96.4066V19.544H86.7406V18.338ZM86.7946 25.898H98.2606V27.122H86.7946V25.898Z" fill="#D9D9D9"/>
<path d="M9 26.8H11.5556V24.2H9V26.8ZM9 32H11.5556V29.4H9V32ZM9 21.6H11.5556V19H9V21.6ZM14.1111 26.8H32V24.2H14.1111V26.8ZM14.1111 32H32V29.4H14.1111V32ZM14.1111 19V21.6H32V19H14.1111Z" fill="#D9D9D9" fill-opacity="0.45098"/>
</svg>
