<svg width="58" height="58" viewBox="0 0 58 58" fill="none" xmlns="http://www.w3.org/2000/svg">
<g filter="url(#filter0_d_293_3632)">
<rect x="4" width="50" height="50" rx="10" fill="#5079F5"/>
</g>
<path d="M20.9254 32.088H21.9334V37.62H20.9254V32.088ZM17.6134 32.616H18.7054C18.7054 35.388 16.7734 37.104 13.5814 37.848L13.2214 37.032C16.0774 36.408 17.6134 35.004 17.6134 33.12V32.616ZM13.7614 32.616H18.2854V33.432H13.7614V32.616ZM14.9134 38.148H21.9334V40.788H15.9214V42.432H14.9374V40.044H20.9374V38.94H14.9134V38.148ZM14.9374 42.036H22.2934V42.828H14.9374V42.036ZM26.7805 33.876H27.5965V34.344C27.5965 36.192 26.3725 37.692 24.5485 38.268L24.0805 37.488C25.6885 36.996 26.7805 35.76 26.7805 34.344V33.876ZM26.9605 33.876H27.7765V34.344C27.7765 35.64 28.8325 36.816 30.4285 37.284L29.9605 38.052C28.1485 37.512 26.9605 36.072 26.9605 34.344V33.876ZM24.3805 33.348H30.1645V34.152H24.3805V33.348ZM26.7805 32.04H27.7765V33.684H26.7805V32.04ZM31.4965 32.088H32.4925V38.388H31.4965V32.088ZM32.2165 34.764H34.1005V35.592H32.2165V34.764ZM28.6045 39.288H29.4565V39.576C29.4565 41.28 27.6565 42.54 25.5325 42.9L25.1485 42.132C27.0205 41.844 28.6045 40.788 28.6045 39.576V39.288ZM28.7965 39.288H29.6485V39.576C29.6485 40.764 31.2565 41.844 33.0925 42.144L32.7205 42.912C30.5965 42.552 28.7965 41.244 28.7965 39.576V39.288ZM25.5685 38.976H32.6845V39.78H25.5685V38.976ZM43.0155 32.088H44.0115V42.936H43.0155V32.088ZM39.8355 33.252H40.8195C40.8195 36.396 39.4035 39.144 35.7795 40.92L35.2515 40.116C38.3835 38.604 39.8355 36.3 39.8355 33.42V33.252ZM35.7435 33.252H40.2675V34.068H35.7435V33.252Z" fill="white"/>
<path d="M27.2147 8.84428C27.4457 8.48204 27.8823 8.30782 28.2992 8.41149L31.3313 9.16545C31.9741 9.32528 32.2867 10.0545 31.9593 10.6303L28.0428 17.5164C27.9571 17.6671 27.9121 17.8375 27.9121 18.0108L27.9121 26.6518C27.9121 27.2041 27.4644 27.6518 26.9121 27.6518L23.7739 27.6518C23.2216 27.6518 22.7739 27.2042 22.7739 26.6519L22.7727 16.1021C22.7727 15.9116 22.8271 15.725 22.9295 15.5644L27.2147 8.84428Z" fill="white"/>
<path d="M31.3123 3.91813C31.8439 3.70367 32.4467 3.97914 32.6324 4.52147L34.9946 11.4177C35.2791 12.2484 34.4315 13.0163 33.6329 12.6513L24.5104 8.48202C23.7118 8.11702 23.7377 6.97361 24.552 6.64512L31.3123 3.91813Z" fill="white"/>
<defs>
<filter id="filter0_d_293_3632" x="0" y="0" width="58" height="58" filterUnits="userSpaceOnUse" color-interpolation-filters="sRGB">
<feFlood flood-opacity="0" result="BackgroundImageFix"/>
<feColorMatrix in="SourceAlpha" type="matrix" values="0 0 0 0 0 0 0 0 0 0 0 0 0 0 0 0 0 0 127 0" result="hardAlpha"/>
<feOffset dy="4"/>
<feGaussianBlur stdDeviation="2"/>
<feComposite in2="hardAlpha" operator="out"/>
<feColorMatrix type="matrix" values="0 0 0 0 0 0 0 0 0 0 0 0 0 0 0 0 0 0 0.1 0"/>
<feBlend mode="normal" in2="BackgroundImageFix" result="effect1_dropShadow_293_3632"/>
<feBlend mode="normal" in="SourceGraphic" in2="effect1_dropShadow_293_3632" result="shape"/>
</filter>
</defs>
</svg>
