<svg width="15" height="14" viewBox="0 0 15 14" fill="none" xmlns="http://www.w3.org/2000/svg">
<path d="M13.4921 3.29L13.5007 3.28222L10.318 0.388889L9.41111 1.21333L11.2163 2.85444C10.4121 3.13444 9.83889 3.83444 9.83889 4.66667C9.83889 5.74 10.7971 6.61111 11.9778 6.61111C12.2858 6.61111 12.5681 6.54889 12.8333 6.44778V12.0556C12.8333 12.4833 12.4483 12.8333 11.9778 12.8333C11.5072 12.8333 11.1222 12.4833 11.1222 12.0556V8.55556C11.1222 7.7 10.3522 7 9.41111 7H8.55556V1.55556C8.55556 0.7 7.78556 0 6.84444 0H1.71111C0.77 0 0 0.7 0 1.55556V14H8.55556V8.16667H9.83889V12.0556C9.83889 13.1289 10.7971 14 11.9778 14C13.1584 14 14.1167 13.1289 14.1167 12.0556V4.66667C14.1167 4.13 13.8771 3.64 13.4921 3.29ZM6.84444 5.44444H1.71111V1.55556H6.84444V5.44444ZM11.9778 5.44444C11.5072 5.44444 11.1222 5.09444 11.1222 4.66667C11.1222 4.23889 11.5072 3.88889 11.9778 3.88889C12.4483 3.88889 12.8333 4.23889 12.8333 4.66667C12.8333 5.09444 12.4483 5.44444 11.9778 5.44444Z" fill="black"/>
</svg>
