<svg width="393" height="56" viewBox="0 0 393 56" fill="none" xmlns="http://www.w3.org/2000/svg">
<rect width="393" height="55" fill="white"/>
<line y1="55.0029" x2="393" y2="55.0029" stroke="#CCCCCC"/>
<line x1="352.309" y1="35.9255" x2="368.926" y2="19.3085" stroke="#969696" stroke-width="1.5"/>
<line x1="352.309" y1="19.3084" x2="368.926" y2="35.9254" stroke="#969696" stroke-width="1.5"/>
<path d="M67.6 20.98V20.78H57V19.46H69.22V20.98C69.22 22.42 69.22 23.88 68.72 25.72L67.12 25.54C67.6 23.7 67.6 22.38 67.6 20.98ZM63.1 35.18C65.92 35.18 67.72 34.42 67.72 33.18C67.72 31.9 65.92 31.14 63.1 31.14C60.3 31.14 58.5 31.9 58.5 33.18C58.5 34.42 60.3 35.18 63.1 35.18ZM63.1 29.88C66.92 29.88 69.36 31.1 69.36 33.18C69.36 35.22 66.92 36.46 63.1 36.46C59.28 36.46 56.86 35.22 56.86 33.18C56.86 31.1 59.28 29.88 63.1 29.88ZM63.36 26.9H71.24V28.22H55.1V26.9H61.72V23.46H63.36V26.9ZM82.8584 29.14H86.4984V18.54H88.1384V32.2H86.4984V30.36H82.8584V29.14ZM79.1984 20.48C77.4984 20.48 76.3384 21.24 76.3384 22.38C76.3384 23.54 77.4984 24.3 79.1984 24.3C80.8984 24.3 82.0584 23.54 82.0584 22.38C82.0584 21.24 80.8984 20.48 79.1984 20.48ZM79.1984 25.52C76.5784 25.52 74.7784 24.3 74.7784 22.38C74.7784 20.5 76.5784 19.26 79.1984 19.26C81.8184 19.26 83.6184 20.5 83.6184 22.38C83.6184 24.3 81.8184 25.52 79.1984 25.52ZM78.5584 31.56V28.1C76.7784 28.18 75.0584 28.2 73.5784 28.2L73.3584 26.84C76.6784 26.84 81.1184 26.8 84.9184 26.32L85.0584 27.5C83.4784 27.74 81.8184 27.92 80.1984 28.02V31.56H78.5584ZM77.5584 34.74H88.5984V36.08H75.9184V30.86H77.5584V34.74Z" fill="black"/>
<path d="M32 19L23 28L32 37" stroke="black" stroke-width="1.5"/>
</svg>
